<svg id="svg" version="1.1" xmlns="http://www.w3.org/2000/svg" xmlns:xlink="http://www.w3.org/1999/xlink" width="400" height="485.82995951417" viewBox="0, 0, 400,485.82995951417"><g id="svgg"><path id="path0" d="M164.580 55.761 C 146.447 59.205,131.785 70.135,123.567 86.336 C 122.489 88.461,121.605 90.479,121.603 90.820 C 121.602 91.161,121.451 91.611,121.270 91.820 C 121.088 92.029,120.707 93.010,120.423 94.000 C 120.139 94.990,119.767 96.250,119.596 96.800 C 118.515 100.279,117.600 107.977,117.600 113.594 C 117.600 136.795,108.308 157.265,89.793 174.854 C 88.257 176.313,86.584 177.957,86.075 178.506 L 85.151 179.504 86.675 180.432 C 96.631 186.490,108.595 198.922,115.512 210.400 C 118.013 214.550,121.600 221.651,121.600 222.453 C 121.600 225.940,130.208 205.108,133.191 194.400 C 133.467 193.410,133.830 192.150,133.997 191.600 C 134.164 191.050,134.512 189.610,134.770 188.400 C 135.028 187.190,135.396 185.480,135.587 184.600 C 136.150 182.010,136.745 178.795,137.215 175.800 C 138.134 169.944,138.490 168.796,139.700 167.777 C 142.969 165.027,147.261 168.263,146.383 172.817 C 146.194 173.798,145.831 175.950,145.576 177.600 C 145.143 180.404,144.312 184.762,143.593 188.000 C 143.422 188.770,143.154 190.030,142.997 190.800 C 140.848 201.343,132.017 224.162,127.285 231.400 C 121.358 240.465,114.155 243.842,104.152 242.246 C 96.903 241.089,96.130 241.371,95.219 245.509 C 94.941 246.769,94.553 248.322,94.357 248.960 C 91.930 256.848,96.041 269.094,104.437 278.983 C 112.270 288.209,129.126 297.594,140.400 299.006 C 144.996 299.582,146.883 301.616,145.951 304.991 C 145.114 308.022,141.927 308.600,135.000 306.975 C 133.680 306.665,132.403 306.409,132.163 306.406 C 131.855 306.402,131.647 313.275,131.459 329.700 C 131.313 342.515,131.001 357.050,130.767 362.000 C 130.534 366.950,130.400 372.699,130.471 374.775 L 130.600 378.549 132.800 379.316 C 198.769 402.301,270.057 366.453,290.530 300.000 C 298.528 274.036,297.253 240.558,287.443 219.000 C 287.142 218.340,286.211 216.180,285.373 214.200 C 283.455 209.665,280.032 203.101,278.354 200.738 C 277.939 200.154,277.600 199.562,277.600 199.423 C 277.600 198.967,272.971 192.286,269.967 188.406 C 267.134 184.747,261.323 178.756,249.983 167.800 C 242.686 160.751,238.441 154.712,235.641 147.400 C 235.136 146.080,234.578 144.640,234.402 144.200 C 232.359 139.101,230.262 128.231,229.809 120.400 C 228.713 101.425,228.380 98.643,226.531 93.000 C 220.600 74.902,205.788 61.484,186.298 56.549 C 181.251 55.271,169.419 54.842,164.580 55.761 M138.926 86.450 C 145.054 89.606,143.173 98.800,136.400 98.800 C 129.831 98.800,127.610 89.650,133.441 86.609 C 134.808 85.897,137.689 85.813,138.926 86.450 M334.702 145.889 C 332.183 149.627,326.795 157.447,319.604 167.800 C 317.771 170.440,314.226 175.570,311.727 179.200 C 306.741 186.443,303.229 191.515,296.941 200.553 C 291.977 207.690,292.139 206.223,295.499 213.600 C 296.051 214.810,297.570 219.040,298.875 223.000 C 300.181 226.960,301.373 230.315,301.525 230.456 C 301.763 230.679,304.912 228.300,314.000 221.033 C 315.210 220.065,319.260 216.859,323.000 213.908 C 326.740 210.957,334.120 205.128,339.400 200.955 C 344.680 196.782,349.489 193.015,350.087 192.584 C 351.550 191.529,351.555 191.603,349.539 184.400 C 349.323 183.630,348.991 182.370,348.800 181.600 C 348.454 180.203,347.916 178.249,347.150 175.600 C 346.927 174.830,346.653 173.750,346.542 173.200 C 346.431 172.650,346.187 171.840,346.000 171.400 C 345.813 170.960,345.569 170.150,345.458 169.600 C 345.347 169.050,345.051 167.880,344.801 167.000 C 344.551 166.120,344.191 164.770,344.000 164.000 C 343.809 163.230,343.477 161.970,343.261 161.200 C 343.046 160.430,342.584 158.765,342.235 157.500 C 341.886 156.235,341.314 154.165,340.965 152.900 C 340.616 151.635,340.154 149.970,339.939 149.200 C 339.534 147.753,339.084 145.999,338.511 143.630 C 337.984 141.450,337.498 141.738,334.702 145.889 " stroke="none" fill="#63c2ca" fill-rule="evenodd"></path><path id="path1" d="M165.144 46.609 C 151.397 48.484,138.956 54.462,129.167 63.896 C 120.383 72.361,115.400 80.269,111.744 91.546 C 111.005 93.826,110.400 96.016,110.400 96.413 C 110.400 98.451,110.691 98.400,99.057 98.401 C 81.936 98.402,81.576 98.947,90.579 111.256 C 92.131 113.377,94.221 116.257,95.224 117.656 C 96.227 119.055,98.944 122.810,101.261 126.000 C 103.578 129.190,105.606 132.029,105.767 132.310 C 106.577 133.720,100.407 147.349,96.036 153.806 C 92.639 158.823,91.176 160.485,82.830 168.802 C 71.836 179.757,65.855 187.413,59.084 199.200 C 56.543 203.623,52.285 212.875,50.800 217.200 C 50.536 217.970,50.167 218.960,49.980 219.400 C 49.794 219.840,49.248 221.460,48.768 223.000 C 48.288 224.540,47.751 226.160,47.575 226.600 C 47.398 227.040,46.958 228.570,46.595 230.000 C 46.233 231.430,45.765 233.230,45.555 234.000 C 40.981 250.804,41.709 280.744,47.151 299.600 C 47.373 300.370,47.727 301.630,47.937 302.400 C 48.637 304.966,50.319 309.830,51.637 313.100 C 51.837 313.595,52.161 314.405,52.358 314.900 C 52.796 316.001,54.425 319.605,55.884 322.700 C 69.465 351.515,99.792 378.062,130.800 388.278 C 141.965 391.956,154.009 394.470,163.000 394.998 C 165.200 395.127,167.791 395.330,168.759 395.450 L 170.517 395.667 170.246 402.733 C 170.097 406.620,169.670 413.040,169.297 417.000 C 168.925 420.960,168.615 426.135,168.610 428.500 L 168.600 432.800 166.600 432.797 C 163.566 432.793,152.344 434.001,151.134 434.462 C 149.482 435.092,148.874 436.974,149.886 438.325 C 150.808 439.556,152.412 439.661,160.500 439.022 C 165.684 438.612,165.675 438.594,162.400 442.697 C 159.642 446.152,159.537 446.560,161.260 447.161 C 164.286 448.216,165.543 447.552,169.000 443.072 C 170.100 441.647,171.315 440.281,171.700 440.037 C 172.457 439.557,172.400 439.215,172.548 445.067 C 172.612 447.616,172.688 447.692,175.400 447.917 C 178.676 448.188,178.800 447.986,178.800 442.351 C 178.800 438.554,178.912 437.600,179.358 437.600 C 180.577 437.600,185.571 439.379,188.537 440.869 C 192.244 442.732,193.346 442.751,193.521 440.954 C 193.761 438.488,185.883 434.164,178.344 432.623 C 176.883 432.324,176.789 431.843,177.229 426.922 C 178.023 418.056,178.467 411.183,178.730 403.685 C 179.044 394.701,178.603 395.412,184.086 395.052 C 236.600 391.611,285.823 351.676,299.643 301.300 C 299.840 300.585,300.192 299.325,300.427 298.500 C 303.987 285.982,305.957 266.907,304.817 256.006 C 304.176 249.879,304.249 249.616,306.885 248.526 C 308.048 248.046,314.040 245.465,320.200 242.792 C 335.894 235.980,350.815 229.533,357.400 226.720 C 366.020 223.037,367.733 221.285,367.733 216.157 C 367.733 211.409,366.543 210.064,358.397 205.599 C 352.655 202.451,352.668 202.467,354.474 200.903 C 358.344 197.552,358.994 196.851,359.695 195.271 C 361.052 192.215,360.793 190.353,357.215 177.400 C 355.391 170.800,353.758 164.860,353.585 164.200 C 353.210 162.765,351.945 158.142,350.794 154.000 C 350.008 151.171,349.589 149.624,347.567 142.100 C 347.109 140.395,346.643 138.550,346.531 138.000 C 345.657 133.708,342.535 131.143,338.185 131.143 C 334.116 131.143,333.087 132.019,327.400 140.315 C 323.153 146.512,323.337 146.447,321.172 142.500 C 320.236 140.795,319.024 138.590,318.477 137.600 C 315.045 131.383,309.695 129.356,304.371 132.255 C 301.499 133.817,300.913 134.774,296.801 144.600 C 294.847 149.268,294.390 150.335,293.247 152.896 C 292.781 153.938,292.400 154.879,292.400 154.986 C 292.400 155.093,291.860 156.359,291.200 157.800 C 290.540 159.241,290.000 160.507,290.000 160.614 C 290.000 160.721,289.619 161.662,289.153 162.704 C 288.688 163.747,288.058 165.185,287.753 165.900 C 287.449 166.615,286.951 167.785,286.647 168.500 C 286.342 169.215,285.712 170.653,285.247 171.696 C 284.781 172.738,284.400 173.678,284.400 173.784 C 284.400 173.890,283.968 174.927,283.441 176.088 C 282.913 177.250,282.185 178.920,281.824 179.800 C 279.886 184.514,278.436 186.670,278.393 184.900 C 278.367 183.857,269.028 173.474,263.339 168.163 C 260.297 165.323,256.429 161.650,254.745 160.000 C 243.380 148.869,237.995 131.543,237.999 106.131 C 238.000 104.552,237.831 102.392,237.624 101.331 C 237.418 100.269,237.041 98.140,236.786 96.600 C 236.354 93.978,236.052 92.757,235.104 89.800 C 226.019 61.453,195.308 42.493,165.144 46.609 M181.071 55.220 C 200.706 57.858,218.006 71.163,225.516 89.401 C 227.994 95.419,228.965 100.950,229.588 112.600 C 230.519 130.001,231.654 136.368,235.651 146.611 C 238.990 155.167,242.725 160.492,250.785 168.189 C 260.039 177.026,267.381 184.575,270.052 188.001 C 293.444 218.000,301.916 257.996,292.506 294.000 C 292.189 295.210,291.791 296.740,291.621 297.400 C 274.792 362.604,201.831 401.914,136.600 380.921 C 129.253 378.557,129.963 380.162,130.446 367.000 C 130.672 360.840,130.950 344.730,131.064 331.200 C 131.177 317.670,131.417 306.447,131.596 306.259 C 131.775 306.072,133.174 306.203,134.705 306.551 C 142.073 308.227,145.253 307.657,145.835 304.555 C 146.442 301.318,144.898 300.037,139.400 299.217 C 123.516 296.846,103.706 282.575,97.049 268.707 C 95.925 266.366,95.607 265.462,94.548 261.600 C 93.813 258.924,93.719 250.123,94.397 247.562 C 96.220 240.673,96.436 240.538,103.600 241.800 C 117.680 244.280,125.631 237.919,133.597 217.800 C 134.294 216.040,135.100 214.060,135.389 213.400 C 140.628 201.413,147.412 173.513,145.994 169.784 C 144.171 164.989,139.009 166.690,138.053 172.400 C 135.793 185.913,134.536 191.293,131.362 201.035 C 128.909 208.566,122.802 223.200,122.112 223.200 C 121.929 223.200,120.934 221.384,119.901 219.165 C 113.084 204.519,101.715 191.074,88.639 182.191 C 84.353 179.280,84.174 179.995,90.848 173.390 C 100.082 164.252,103.862 159.119,109.154 148.530 C 114.931 136.972,116.329 130.979,117.391 113.200 C 117.768 106.892,118.295 101.613,118.774 99.365 C 124.862 70.758,152.252 51.349,181.071 55.220 M132.147 88.147 C 128.189 92.106,130.850 98.403,136.480 98.399 C 139.811 98.396,142.397 95.773,142.397 92.400 C 142.397 86.937,136.009 84.286,132.147 88.147 M108.575 106.359 C 108.939 106.948,108.103 120.857,107.678 121.282 C 107.279 121.681,106.321 120.479,99.862 111.486 C 95.529 105.452,95.282 106.000,102.334 106.000 C 105.644 106.000,108.453 106.162,108.575 106.359 M311.599 143.310 C 312.588 145.119,314.342 148.349,315.497 150.488 L 317.596 154.375 315.462 157.488 C 314.289 159.199,309.218 166.540,304.194 173.800 C 299.170 181.060,293.437 189.385,291.454 192.300 C 287.548 198.041,287.345 198.201,286.300 196.365 C 285.195 194.423,285.306 193.752,287.593 188.600 C 287.984 187.720,290.597 181.600,293.401 175.000 C 296.205 168.400,298.926 162.050,299.449 160.888 C 299.972 159.727,300.400 158.696,300.400 158.598 C 300.400 158.500,300.940 157.241,301.600 155.800 C 302.260 154.359,302.800 153.100,302.800 153.002 C 302.800 152.904,303.236 151.870,303.769 150.705 C 304.302 149.540,305.122 147.614,305.590 146.425 C 308.732 138.453,308.897 138.368,311.599 143.310 M338.510 142.700 C 338.620 143.305,338.987 144.790,339.325 146.000 C 339.663 147.210,340.304 149.550,340.748 151.200 C 341.193 152.850,342.294 156.875,343.195 160.144 C 344.096 163.413,345.079 167.013,345.379 168.144 C 345.680 169.275,347.206 174.862,348.771 180.560 C 350.336 186.258,351.511 191.208,351.383 191.560 C 351.255 191.912,344.096 197.743,335.475 204.518 C 326.854 211.293,315.750 220.056,310.800 223.990 C 301.916 231.051,301.791 231.133,301.100 230.327 C 300.715 229.879,300.400 229.180,300.400 228.775 C 300.400 228.369,300.230 227.624,300.022 227.119 C 299.814 226.613,299.204 224.760,298.666 223.000 C 297.589 219.472,294.991 212.821,293.414 209.552 C 292.856 208.396,292.400 207.290,292.400 207.094 C 292.400 206.697,293.972 204.381,307.802 184.400 C 313.055 176.810,318.786 168.530,320.537 166.000 C 327.279 156.258,332.658 148.462,334.956 145.100 C 337.492 141.392,338.186 140.923,338.510 142.700 M86.428 191.575 C 98.366 200.527,109.792 215.864,114.385 229.101 C 116.112 234.078,113.168 235.429,103.855 233.934 C 92.945 232.182,88.995 235.048,86.619 246.438 C 82.605 265.676,94.024 285.665,116.520 298.779 C 118.764 300.088,121.026 301.462,121.547 301.833 L 122.495 302.509 122.262 325.554 C 121.942 357.184,121.429 373.553,120.737 374.198 C 119.923 374.956,110.271 369.393,102.400 363.629 C 63.283 334.984,46.167 292.571,53.155 241.600 C 55.300 225.956,67.289 199.790,76.268 191.158 C 80.681 186.915,80.188 186.895,86.428 191.575 M352.893 211.953 C 361.553 216.696,361.917 215.848,348.800 221.511 C 343.190 223.934,331.682 228.905,323.226 232.558 C 304.617 240.597,303.806 240.775,310.891 235.256 C 315.155 231.934,321.701 226.777,334.972 216.282 C 341.666 210.989,345.567 208.156,345.972 208.293 C 346.317 208.410,349.432 210.057,352.893 211.953 " stroke="none" fill="#1e1f1f" fill-rule="evenodd"></path><path id="path2" d="M0.000 242.800 L 0.000 485.600 200.000 485.600 L 400.000 485.600 400.000 242.800 L 400.000 0.000 200.000 0.000 L 0.000 0.000 0.000 242.800 M182.430 45.789 C 210.152 49.707,232.927 71.152,237.562 97.701 C 238.363 102.283,239.202 112.641,239.201 117.923 C 239.200 122.979,240.511 131.052,242.462 138.000 C 242.679 138.770,242.955 139.808,243.076 140.306 C 243.197 140.804,243.454 141.310,243.648 141.430 C 243.841 141.549,244.000 141.929,244.000 142.272 C 244.000 143.428,247.982 150.975,250.025 153.689 C 252.299 156.713,254.338 158.801,262.046 166.000 C 266.380 170.048,270.694 174.480,275.019 179.330 C 275.249 179.589,276.216 180.835,277.167 182.100 C 278.118 183.365,278.936 184.400,278.985 184.400 C 279.094 184.400,280.782 180.909,281.210 179.800 C 281.380 179.360,281.828 178.280,282.207 177.400 C 282.585 176.520,283.123 175.260,283.401 174.600 C 283.679 173.940,284.288 172.547,284.753 171.504 C 285.219 170.462,285.600 169.515,285.600 169.400 C 285.600 169.285,285.981 168.338,286.447 167.296 C 286.912 166.253,287.542 164.815,287.847 164.100 C 288.664 162.181,289.527 160.169,290.163 158.700 C 290.473 157.985,291.483 155.600,292.407 153.400 C 293.332 151.200,294.684 148.050,295.413 146.400 C 296.141 144.750,297.398 141.795,298.206 139.834 C 301.254 132.427,303.600 130.400,309.123 130.400 C 313.473 130.400,316.336 132.311,318.712 136.800 C 319.352 138.010,320.294 139.720,320.804 140.600 C 321.313 141.480,321.983 142.691,322.291 143.292 C 323.233 145.129,323.417 144.983,327.357 139.305 C 332.099 132.469,331.896 132.718,333.762 131.451 C 338.269 128.393,346.800 132.169,346.800 137.222 C 346.800 137.844,346.980 138.464,347.200 138.600 C 347.420 138.736,347.600 139.278,347.600 139.805 C 347.600 140.331,347.761 141.176,347.958 141.681 C 348.155 142.187,348.515 143.365,348.758 144.300 C 349.904 148.710,350.113 149.454,350.415 150.200 C 350.594 150.640,350.843 151.495,350.970 152.100 C 351.096 152.705,351.304 153.695,351.430 154.300 C 351.557 154.905,351.813 155.760,352.000 156.200 C 352.187 156.640,352.431 157.450,352.542 158.000 C 352.653 158.550,352.927 159.630,353.150 160.400 C 353.916 163.049,354.454 165.003,354.800 166.400 C 354.991 167.170,355.326 168.430,355.546 169.200 C 355.765 169.970,356.330 172.040,356.800 173.800 C 357.270 175.560,357.807 177.540,357.993 178.200 C 358.179 178.860,358.616 180.435,358.965 181.700 C 359.314 182.965,359.897 185.035,360.259 186.300 C 362.226 193.165,361.143 196.343,355.213 201.114 C 353.909 202.163,354.283 202.583,358.487 204.786 C 366.931 209.212,368.872 211.710,368.285 217.394 C 367.912 221.017,366.009 223.534,362.297 225.316 C 359.405 226.704,355.613 228.400,355.400 228.400 C 355.303 228.400,354.273 228.829,353.112 229.354 C 351.950 229.878,349.650 230.889,348.000 231.601 C 346.350 232.312,344.280 233.213,343.400 233.604 C 342.520 233.994,339.190 235.432,336.000 236.799 C 332.810 238.166,329.250 239.716,328.088 240.242 C 326.927 240.769,325.897 241.200,325.800 241.200 C 325.703 241.200,324.673 241.634,323.512 242.164 C 322.350 242.694,317.814 244.670,313.430 246.554 C 304.108 250.561,304.807 250.029,305.217 252.800 C 307.576 268.767,302.729 298.961,295.152 315.504 C 294.518 316.888,294.000 318.117,294.000 318.236 C 294.000 318.519,290.695 325.108,289.118 327.969 C 286.543 332.641,282.855 338.530,281.340 340.391 C 281.068 340.726,279.983 342.170,278.930 343.600 C 277.877 345.030,276.832 346.405,276.607 346.655 C 276.383 346.906,275.856 347.536,275.436 348.055 C 259.007 368.363,234.813 384.158,209.008 391.425 C 200.707 393.763,187.530 396.000,182.062 396.000 C 179.523 396.000,179.675 395.458,179.182 406.242 C 178.962 411.059,178.583 417.340,178.340 420.200 C 178.098 423.060,177.877 426.817,177.850 428.549 L 177.800 431.698 180.800 432.472 C 186.218 433.872,192.839 437.400,193.937 439.474 C 195.737 442.872,193.154 444.074,188.826 441.852 C 186.283 440.547,182.560 439.141,180.300 438.632 L 179.200 438.385 179.200 443.178 C 179.200 448.791,179.039 449.018,175.283 448.707 C 172.415 448.469,172.000 447.890,172.000 444.124 C 172.000 440.472,171.879 440.483,168.777 444.429 C 165.516 448.577,164.147 449.196,160.934 447.975 C 158.595 447.086,158.665 446.318,161.395 442.927 C 164.165 439.486,164.157 439.436,160.900 439.757 C 152.160 440.619,151.087 440.583,149.900 439.393 C 147.998 437.487,148.945 433.968,151.505 433.432 C 153.257 433.065,164.028 432.002,166.000 432.001 L 167.800 432.000 167.824 429.500 C 167.837 428.125,168.062 424.930,168.325 422.400 C 169.124 414.698,169.781 404.831,169.791 400.400 L 169.800 396.200 167.400 396.115 C 154.894 395.673,138.102 392.146,125.600 387.333 C 117.241 384.116,108.963 379.738,101.000 374.324 C 93.761 369.402,93.824 369.449,87.414 364.037 C 73.067 351.920,58.122 331.387,52.013 315.400 C 51.845 314.960,51.503 314.105,51.254 313.500 C 51.004 312.895,50.599 311.905,50.353 311.300 C 50.108 310.695,49.748 309.887,49.553 309.505 C 49.359 309.123,49.200 308.459,49.200 308.029 C 49.200 307.599,49.020 307.136,48.800 307.000 C 48.580 306.864,48.400 306.324,48.400 305.800 C 48.400 305.276,48.220 304.736,48.000 304.600 C 47.780 304.464,47.600 303.834,47.600 303.200 C 47.600 302.566,47.420 301.936,47.200 301.800 C 46.980 301.664,46.800 301.034,46.800 300.400 C 46.800 299.766,46.620 299.136,46.400 299.000 C 46.180 298.864,46.000 298.144,46.000 297.400 C 46.000 296.656,45.820 295.936,45.600 295.800 C 45.380 295.664,45.200 294.879,45.200 294.056 C 45.200 293.233,45.037 292.389,44.839 292.180 C 44.640 291.971,44.379 290.990,44.258 290.000 C 44.137 289.010,43.849 287.120,43.618 285.800 C 42.492 279.366,42.243 275.441,42.233 264.000 C 42.223 251.204,42.486 247.881,44.359 237.200 C 44.858 234.348,45.245 232.803,46.833 227.300 C 47.071 226.475,47.362 225.303,47.479 224.695 C 47.596 224.087,47.851 223.492,48.046 223.371 C 48.241 223.251,48.400 222.749,48.400 222.256 C 48.400 221.763,48.543 221.189,48.718 220.980 C 48.893 220.771,49.265 219.880,49.545 219.000 C 49.824 218.120,50.197 217.040,50.373 216.600 C 50.549 216.160,50.873 215.350,51.093 214.800 C 53.502 208.776,56.618 202.271,59.330 197.600 C 61.432 193.978,66.340 186.334,66.777 186.000 C 66.921 185.890,67.467 185.170,67.991 184.400 C 70.396 180.866,75.156 175.581,82.402 168.400 C 94.169 156.740,99.827 148.451,104.247 136.402 C 105.537 132.886,105.540 132.903,102.700 129.057 C 101.325 127.195,98.940 123.915,97.400 121.768 C 95.860 119.621,92.424 114.868,89.765 111.205 C 84.293 103.670,83.779 102.626,84.588 100.691 C 85.809 97.767,85.598 97.814,98.239 97.677 L 109.596 97.554 109.818 96.477 C 110.426 93.522,112.048 88.449,113.295 85.600 C 114.810 82.141,116.599 78.599,116.898 78.467 C 117.064 78.393,117.200 78.161,117.200 77.951 C 117.200 77.180,121.991 70.503,124.918 67.196 C 137.158 53.363,154.643 45.420,173.230 45.247 C 175.997 45.221,180.137 45.465,182.430 45.789 M307.996 142.731 C 307.503 143.759,306.960 144.960,306.790 145.400 C 306.620 145.840,306.193 146.875,305.841 147.700 C 305.488 148.525,304.951 149.785,304.647 150.500 C 304.342 151.215,303.712 152.653,303.247 153.696 C 302.781 154.738,302.400 155.685,302.400 155.800 C 302.400 155.915,302.019 156.862,301.553 157.904 C 301.088 158.947,300.477 160.340,300.196 161.000 C 299.914 161.660,299.327 163.010,298.890 164.000 C 298.454 164.990,296.618 169.296,294.811 173.569 C 293.005 177.841,291.107 182.254,290.594 183.376 C 290.081 184.497,289.274 186.398,288.800 187.600 C 288.326 188.802,287.496 190.754,286.955 191.936 C 286.086 193.835,286.031 194.222,286.483 195.243 C 287.239 196.950,287.567 196.728,290.200 192.738 C 291.520 190.738,292.780 188.898,293.000 188.650 C 293.220 188.403,294.684 186.310,296.253 184.000 C 297.822 181.690,300.298 178.090,301.754 176.000 C 303.211 173.910,305.871 170.040,307.666 167.400 C 309.461 164.760,311.080 162.540,311.265 162.467 C 311.449 162.393,311.600 162.112,311.600 161.842 C 311.600 161.572,311.924 161.002,312.319 160.575 C 315.675 156.959,316.898 153.864,315.686 152.062 C 315.293 151.478,314.708 150.460,314.386 149.800 C 314.065 149.140,313.711 148.510,313.601 148.400 C 313.278 148.078,311.235 144.332,310.496 142.708 C 309.535 140.593,309.021 140.598,307.996 142.731 M76.553 192.111 C 74.767 193.920,72.886 196.030,72.372 196.800 C 71.859 197.570,71.323 198.290,71.182 198.400 C 70.204 199.163,65.127 208.766,62.195 215.400 C 60.361 219.550,56.610 230.110,55.375 234.600 C 51.811 247.566,51.239 272.644,54.181 287.000 C 54.316 287.660,54.627 289.190,54.871 290.400 C 56.353 297.751,59.335 307.005,62.465 313.968 C 65.017 319.645,70.145 328.944,71.488 330.329 C 71.769 330.619,72.000 331.011,72.000 331.200 C 72.000 331.389,72.234 331.781,72.519 332.071 C 72.804 332.362,73.645 333.500,74.388 334.600 C 75.130 335.700,76.472 337.497,77.369 338.594 C 78.266 339.690,79.270 340.928,79.600 341.345 C 83.366 346.099,91.895 354.353,98.200 359.348 C 99.520 360.394,100.903 361.496,101.273 361.798 C 103.816 363.869,112.706 369.509,117.475 372.076 L 120.350 373.624 120.545 369.112 C 121.051 357.436,121.791 324.249,121.767 314.284 C 121.737 301.773,122.023 302.869,118.259 300.843 C 116.972 300.149,115.139 299.046,114.187 298.391 C 113.235 297.736,112.263 297.200,112.028 297.200 C 111.793 297.200,111.600 297.059,111.600 296.886 C 111.600 296.714,111.067 296.257,110.415 295.872 C 109.763 295.487,108.993 294.953,108.705 294.686 C 108.416 294.419,107.375 293.577,106.390 292.816 C 95.686 284.537,89.563 275.583,86.002 263.000 C 84.891 259.072,85.536 243.381,86.842 242.574 C 87.039 242.452,87.200 242.037,87.200 241.651 C 87.200 235.681,94.564 231.527,102.827 232.836 C 107.728 233.612,111.490 233.550,113.276 232.664 C 114.882 231.867,114.864 232.187,113.497 228.800 C 113.275 228.250,112.959 227.440,112.794 227.000 C 108.956 216.714,99.476 203.652,90.007 195.600 C 88.584 194.390,87.183 193.181,86.895 192.914 C 86.607 192.647,85.837 192.113,85.185 191.728 C 84.533 191.343,84.000 190.886,84.000 190.714 C 84.000 190.541,83.764 190.400,83.475 190.400 C 83.187 190.400,82.564 190.040,82.092 189.600 C 80.707 188.310,79.980 188.640,76.553 192.111 M339.079 214.100 C 335.691 216.795,332.398 219.399,331.760 219.886 C 331.122 220.374,330.150 221.130,329.600 221.567 C 329.050 222.004,325.720 224.641,322.200 227.428 C 318.680 230.214,315.099 233.058,314.242 233.747 C 313.385 234.436,312.135 235.405,311.464 235.900 C 309.663 237.229,310.707 237.002,314.882 235.157 C 316.927 234.253,320.490 232.706,322.800 231.720 C 328.357 229.347,329.467 228.866,331.600 227.908 C 332.590 227.463,333.760 226.964,334.200 226.800 C 334.640 226.636,335.810 226.137,336.800 225.692 C 338.581 224.892,340.188 224.197,343.100 222.966 C 343.925 222.618,344.913 222.168,345.295 221.966 C 345.677 221.765,346.262 221.600,346.595 221.600 C 346.928 221.600,347.200 221.420,347.200 221.200 C 347.200 220.980,347.442 220.800,347.739 220.800 C 348.035 220.800,348.800 220.550,349.439 220.244 C 350.077 219.938,351.230 219.419,352.000 219.090 C 352.770 218.762,354.253 218.112,355.296 217.647 C 356.338 217.181,357.373 216.800,357.596 216.800 C 358.419 216.800,357.965 215.717,356.911 215.168 C 356.312 214.855,353.662 213.385,351.021 211.900 C 345.078 208.558,346.336 208.327,339.079 214.100 " stroke="none" fill="#fbfbf9" fill-rule="evenodd"></path><path id="path3" d="M166.000 45.626 C 160.560 46.448,158.279 46.970,153.618 48.460 C 142.560 51.995,132.636 58.473,124.918 67.196 C 121.991 70.503,117.200 77.180,117.200 77.951 C 117.200 78.161,117.064 78.393,116.898 78.467 C 116.599 78.599,114.810 82.141,113.295 85.600 C 112.048 88.449,110.426 93.522,109.818 96.477 L 109.596 97.554 98.239 97.677 C 85.598 97.814,85.809 97.767,84.588 100.691 C 83.779 102.626,84.293 103.670,89.765 111.205 C 92.424 114.868,95.860 119.621,97.400 121.768 C 98.940 123.915,101.325 127.195,102.700 129.057 C 105.540 132.903,105.537 132.886,104.247 136.402 C 99.827 148.451,94.169 156.740,82.402 168.400 C 75.156 175.581,70.396 180.866,67.991 184.400 C 67.467 185.170,66.921 185.890,66.777 186.000 C 66.340 186.334,61.432 193.978,59.330 197.600 C 56.618 202.271,53.502 208.776,51.093 214.800 C 50.873 215.350,50.549 216.160,50.373 216.600 C 50.197 217.040,49.824 218.120,49.545 219.000 C 49.265 219.880,48.893 220.771,48.718 220.980 C 48.543 221.189,48.400 221.763,48.400 222.256 C 48.400 222.749,48.241 223.251,48.046 223.371 C 47.851 223.492,47.596 224.087,47.479 224.695 C 47.362 225.303,47.071 226.475,46.833 227.300 C 45.245 232.803,44.858 234.348,44.359 237.200 C 42.486 247.881,42.223 251.204,42.233 264.000 C 42.243 275.441,42.492 279.366,43.618 285.800 C 43.849 287.120,44.137 289.010,44.258 290.000 C 44.379 290.990,44.640 291.971,44.839 292.180 C 45.037 292.389,45.200 293.233,45.200 294.056 C 45.200 294.879,45.380 295.664,45.600 295.800 C 45.820 295.936,46.000 296.656,46.000 297.400 C 46.000 298.144,46.180 298.864,46.400 299.000 C 46.620 299.136,46.800 299.766,46.800 300.400 C 46.800 301.034,46.980 301.664,47.200 301.800 C 47.420 301.936,47.600 302.566,47.600 303.200 C 47.600 303.834,47.780 304.464,48.000 304.600 C 48.220 304.736,48.400 305.276,48.400 305.800 C 48.400 306.324,48.580 306.864,48.800 307.000 C 49.020 307.136,49.200 307.599,49.200 308.029 C 49.200 308.459,49.359 309.123,49.553 309.505 C 49.748 309.887,50.108 310.695,50.353 311.300 C 50.599 311.905,51.004 312.895,51.254 313.500 C 51.503 314.105,51.845 314.960,52.013 315.400 C 58.122 331.387,73.067 351.920,87.414 364.037 C 93.824 369.449,93.761 369.402,101.000 374.324 C 108.963 379.738,117.241 384.116,125.600 387.333 C 138.102 392.146,154.894 395.673,167.400 396.115 L 169.800 396.200 170.023 400.200 L 170.245 404.200 170.323 399.925 L 170.400 395.649 168.700 395.441 C 167.765 395.326,165.200 395.127,163.000 394.998 C 121.012 392.532,80.603 366.433,58.337 327.400 C 56.434 324.064,53.172 317.108,51.584 313.000 C 50.014 308.941,48.636 304.948,47.959 302.500 C 47.762 301.785,47.408 300.525,47.173 299.700 C 42.399 282.912,41.215 261.778,43.975 242.600 C 44.484 239.065,45.123 235.588,45.555 234.000 C 45.765 233.230,46.233 231.430,46.595 230.000 C 46.958 228.570,47.398 227.040,47.575 226.600 C 47.751 226.160,48.288 224.540,48.768 223.000 C 49.248 221.460,49.794 219.840,49.980 219.400 C 50.167 218.960,50.536 217.970,50.800 217.200 C 52.285 212.875,56.543 203.623,59.084 199.200 C 65.855 187.413,71.836 179.757,82.830 168.802 C 91.176 160.485,92.639 158.823,96.036 153.806 C 100.407 147.349,106.577 133.720,105.767 132.310 C 105.606 132.029,103.578 129.190,101.261 126.000 C 98.944 122.810,96.227 119.055,95.224 117.656 C 94.221 116.257,92.131 113.377,90.579 111.256 C 84.893 103.483,84.614 102.958,85.127 101.000 C 85.752 98.610,86.872 98.401,99.057 98.401 C 110.691 98.400,110.400 98.451,110.400 96.413 C 110.400 93.612,114.895 82.609,118.290 77.101 C 139.769 42.248,187.241 35.604,217.649 63.195 C 225.133 69.986,232.588 81.438,235.229 90.200 C 235.495 91.080,235.853 92.250,236.026 92.800 C 236.198 93.350,236.544 95.060,236.794 96.600 C 237.044 98.140,237.418 100.269,237.624 101.331 C 237.831 102.392,238.000 104.552,237.999 106.131 C 237.995 131.543,243.380 148.869,254.745 160.000 C 256.429 161.650,260.297 165.323,263.339 168.163 C 269.028 173.474,278.367 183.857,278.393 184.900 C 278.436 186.670,279.886 184.514,281.824 179.800 C 282.185 178.920,282.913 177.250,283.441 176.088 C 283.968 174.927,284.400 173.890,284.400 173.784 C 284.400 173.678,284.781 172.738,285.247 171.696 C 285.712 170.653,286.342 169.215,286.647 168.500 C 286.951 167.785,287.449 166.615,287.753 165.900 C 288.058 165.185,288.688 163.747,289.153 162.704 C 289.619 161.662,290.000 160.721,290.000 160.614 C 290.000 160.507,290.540 159.241,291.200 157.800 C 291.860 156.359,292.400 155.093,292.400 154.986 C 292.400 154.879,292.781 153.938,293.247 152.896 C 294.390 150.335,294.847 149.268,296.801 144.600 C 300.913 134.774,301.499 133.817,304.371 132.255 C 309.695 129.356,315.045 131.383,318.477 137.600 C 319.024 138.590,320.236 140.795,321.172 142.500 C 323.337 146.447,323.153 146.512,327.400 140.315 C 333.087 132.019,334.116 131.143,338.185 131.143 C 342.535 131.143,345.657 133.708,346.531 138.000 C 346.643 138.550,347.109 140.395,347.567 142.100 C 349.589 149.624,350.008 151.171,350.794 154.000 C 351.945 158.142,353.210 162.765,353.585 164.200 C 353.758 164.860,355.391 170.800,357.215 177.400 C 360.793 190.353,361.052 192.215,359.695 195.271 C 358.994 196.851,358.344 197.552,354.474 200.903 C 352.668 202.467,352.655 202.451,358.397 205.599 C 366.543 210.064,367.733 211.409,367.733 216.157 C 367.733 221.285,366.020 223.037,357.400 226.720 C 350.815 229.533,335.894 235.980,320.200 242.792 C 314.040 245.465,308.048 248.046,306.885 248.526 C 304.249 249.616,304.176 249.879,304.817 256.006 C 305.953 266.864,303.955 286.251,300.449 298.400 C 300.227 299.170,299.874 300.430,299.666 301.200 C 286.049 351.472,236.620 391.610,184.086 395.052 C 178.603 395.412,179.044 394.701,178.730 403.685 C 178.467 411.183,178.023 418.056,177.229 426.922 C 176.789 431.843,176.883 432.324,178.344 432.623 C 185.883 434.164,193.761 438.488,193.521 440.954 C 193.346 442.751,192.244 442.732,188.537 440.869 C 185.571 439.379,180.577 437.600,179.358 437.600 C 178.912 437.600,178.800 438.554,178.800 442.351 C 178.800 447.986,178.676 448.188,175.400 447.917 C 172.688 447.692,172.612 447.616,172.548 445.067 C 172.400 439.215,172.457 439.557,171.700 440.037 C 171.315 440.281,170.100 441.647,169.000 443.072 C 165.543 447.552,164.286 448.216,161.260 447.161 C 159.537 446.560,159.642 446.152,162.400 442.697 C 165.675 438.594,165.684 438.612,160.500 439.022 C 152.412 439.661,150.808 439.556,149.886 438.325 C 148.874 436.974,149.482 435.092,151.134 434.462 C 152.344 434.001,163.566 432.793,166.600 432.797 L 168.600 432.800 168.610 428.500 C 168.615 426.135,168.930 420.963,169.310 417.006 C 169.689 413.049,169.972 408.549,169.938 407.006 C 169.879 404.371,169.854 404.457,169.536 408.400 C 168.565 420.424,168.343 422.881,167.937 426.057 C 167.695 427.958,167.579 430.073,167.679 430.757 C 167.860 431.993,167.851 432.000,166.031 432.001 C 164.035 432.002,153.271 433.062,151.505 433.432 C 148.945 433.968,147.998 437.487,149.900 439.393 C 151.087 440.583,152.160 440.619,160.900 439.757 C 164.157 439.436,164.165 439.486,161.395 442.927 C 158.665 446.318,158.595 447.086,160.934 447.975 C 164.147 449.196,165.516 448.577,168.777 444.429 C 171.879 440.483,172.000 440.472,172.000 444.124 C 172.000 447.890,172.415 448.469,175.283 448.707 C 179.039 449.018,179.200 448.791,179.200 443.178 L 179.200 438.385 180.300 438.632 C 182.560 439.141,186.283 440.547,188.826 441.852 C 193.154 444.074,195.737 442.872,193.937 439.474 C 192.839 437.400,186.218 433.872,180.800 432.472 L 177.800 431.698 177.850 428.549 C 177.877 426.817,178.098 423.060,178.340 420.200 C 178.583 417.340,178.962 411.059,179.182 406.242 C 179.675 395.458,179.523 396.000,182.062 396.000 C 213.134 396.000,253.356 375.347,275.436 348.055 C 275.856 347.536,276.383 346.906,276.607 346.655 C 276.832 346.405,277.877 345.030,278.930 343.600 C 279.983 342.170,281.068 340.726,281.340 340.391 C 282.855 338.530,286.543 332.641,289.118 327.969 C 290.695 325.108,294.000 318.519,294.000 318.236 C 294.000 318.117,294.518 316.888,295.152 315.504 C 299.654 305.675,303.462 290.579,305.178 275.755 C 305.667 271.527,305.694 256.028,305.217 252.800 C 304.807 250.029,304.108 250.561,313.430 246.554 C 317.814 244.670,322.350 242.694,323.512 242.164 C 324.673 241.634,325.703 241.200,325.800 241.200 C 325.897 241.200,326.927 240.769,328.088 240.242 C 329.250 239.716,332.810 238.166,336.000 236.799 C 339.190 235.432,342.520 233.994,343.400 233.604 C 344.280 233.213,346.350 232.312,348.000 231.601 C 349.650 230.889,351.950 229.878,353.112 229.354 C 354.273 228.829,355.303 228.400,355.400 228.400 C 355.613 228.400,359.405 226.704,362.297 225.316 C 366.009 223.534,367.912 221.017,368.285 217.394 C 368.872 211.710,366.931 209.212,358.487 204.786 C 354.283 202.583,353.909 202.163,355.213 201.114 C 361.143 196.343,362.226 193.165,360.259 186.300 C 359.897 185.035,359.314 182.965,358.965 181.700 C 358.616 180.435,358.179 178.860,357.993 178.200 C 357.807 177.540,357.270 175.560,356.800 173.800 C 356.330 172.040,355.765 169.970,355.546 169.200 C 355.326 168.430,354.991 167.170,354.800 166.400 C 354.454 165.003,353.916 163.049,353.150 160.400 C 352.927 159.630,352.653 158.550,352.542 158.000 C 352.431 157.450,352.187 156.640,352.000 156.200 C 351.813 155.760,351.557 154.905,351.430 154.300 C 351.304 153.695,351.096 152.705,350.970 152.100 C 350.843 151.495,350.594 150.640,350.415 150.200 C 350.113 149.454,349.904 148.710,348.758 144.300 C 348.515 143.365,348.155 142.187,347.958 141.681 C 347.761 141.176,347.600 140.331,347.600 139.805 C 347.600 139.278,347.420 138.736,347.200 138.600 C 346.980 138.464,346.800 137.844,346.800 137.222 C 346.800 132.169,338.269 128.393,333.762 131.451 C 331.896 132.718,332.099 132.469,327.357 139.305 C 323.417 144.983,323.233 145.129,322.291 143.292 C 321.983 142.691,321.313 141.480,320.804 140.600 C 320.294 139.720,319.352 138.010,318.712 136.800 C 316.336 132.311,313.473 130.400,309.123 130.400 C 303.600 130.400,301.254 132.427,298.206 139.834 C 297.398 141.795,296.141 144.750,295.413 146.400 C 294.684 148.050,293.332 151.200,292.407 153.400 C 291.483 155.600,290.473 157.985,290.163 158.700 C 289.527 160.169,288.664 162.181,287.847 164.100 C 287.542 164.815,286.912 166.253,286.447 167.296 C 285.981 168.338,285.600 169.285,285.600 169.400 C 285.600 169.515,285.219 170.462,284.753 171.504 C 284.288 172.547,283.679 173.940,283.401 174.600 C 283.123 175.260,282.585 176.520,282.207 177.400 C 281.828 178.280,281.380 179.360,281.210 179.800 C 280.782 180.909,279.094 184.400,278.985 184.400 C 278.936 184.400,278.118 183.365,277.167 182.100 C 276.216 180.835,275.249 179.589,275.019 179.330 C 270.694 174.480,266.380 170.048,262.046 166.000 C 254.338 158.801,252.299 156.713,250.025 153.689 C 247.982 150.975,244.000 143.428,244.000 142.272 C 244.000 141.929,243.841 141.549,243.648 141.430 C 243.454 141.310,243.197 140.804,243.076 140.306 C 242.955 139.808,242.679 138.770,242.462 138.000 C 240.511 131.052,239.200 122.979,239.201 117.923 C 239.205 92.930,233.143 77.024,218.233 62.913 C 204.551 49.964,183.469 42.987,166.000 45.626 M170.700 55.097 C 172.295 55.173,174.905 55.173,176.500 55.097 C 178.095 55.021,176.790 54.959,173.600 54.959 C 170.410 54.959,169.105 55.021,170.700 55.097 M165.300 55.476 C 165.685 55.576,166.315 55.576,166.700 55.476 C 167.085 55.375,166.770 55.293,166.000 55.293 C 165.230 55.293,164.915 55.375,165.300 55.476 M180.500 55.476 C 180.885 55.576,181.515 55.576,181.900 55.476 C 182.285 55.375,181.970 55.293,181.200 55.293 C 180.430 55.293,180.115 55.375,180.500 55.476 M159.681 56.479 C 155.464 57.659,156.369 57.766,160.828 56.614 C 162.902 56.078,164.150 55.644,163.600 55.651 C 163.050 55.657,161.286 56.029,159.681 56.479 M185.761 56.434 C 187.500 56.862,188.991 57.142,189.076 57.058 C 189.284 56.850,184.217 55.593,183.318 55.629 C 182.923 55.645,184.023 56.007,185.761 56.434 M192.988 58.592 C 194.962 59.342,196.639 59.894,196.716 59.818 C 196.905 59.628,190.554 57.197,189.913 57.213 C 189.631 57.221,191.015 57.841,192.988 58.592 M147.542 61.255 C 141.839 64.264,136.021 68.847,131.600 73.813 C 130.830 74.678,132.090 73.585,134.400 71.385 C 139.375 66.645,142.713 64.210,148.171 61.337 C 150.387 60.171,152.020 59.218,151.800 59.218 C 151.580 59.219,149.664 60.136,147.542 61.255 M198.310 60.801 C 200.008 61.837,200.564 61.836,199.000 60.800 C 198.340 60.363,197.620 60.005,197.400 60.004 C 197.180 60.004,197.589 60.362,198.310 60.801 M200.400 61.779 C 200.400 61.889,200.940 62.259,201.600 62.600 C 202.260 62.941,202.800 63.131,202.800 63.021 C 202.800 62.911,202.260 62.541,201.600 62.200 C 200.940 61.859,200.400 61.669,200.400 61.779 M203.200 63.271 C 203.661 63.798,210.414 68.746,210.200 68.399 C 209.911 67.933,205.840 64.802,204.200 63.786 C 203.540 63.377,203.090 63.145,203.200 63.271 M213.206 71.364 C 214.419 72.704,216.285 74.790,217.351 76.000 C 218.775 77.615,218.943 77.739,217.985 76.467 C 217.267 75.513,215.402 73.427,213.840 71.831 C 211.673 69.616,211.523 69.505,213.206 71.364 M127.693 78.700 C 126.657 80.196,126.321 80.800,126.523 80.800 C 126.617 80.800,127.170 80.080,127.753 79.200 C 128.936 77.412,128.884 76.979,127.693 78.700 M124.600 83.600 C 124.259 84.260,124.069 84.800,124.179 84.800 C 124.289 84.800,124.659 84.260,125.000 83.600 C 125.341 82.940,125.531 82.400,125.421 82.400 C 125.311 82.400,124.941 82.940,124.600 83.600 M136.400 86.371 C 138.939 86.664,140.007 87.174,141.169 88.651 C 141.626 89.232,142.000 89.537,142.000 89.329 C 142.000 87.904,138.552 85.985,136.126 86.059 L 134.200 86.118 136.400 86.371 M132.059 87.603 C 130.276 89.308,130.488 89.644,132.296 87.978 C 133.118 87.220,133.868 86.555,133.962 86.500 C 134.056 86.445,133.950 86.400,133.726 86.400 C 133.502 86.400,132.752 86.942,132.059 87.603 M224.028 86.600 C 224.028 86.820,224.286 87.450,224.600 88.000 C 224.914 88.550,225.172 88.820,225.172 88.600 C 225.172 88.380,224.914 87.750,224.600 87.200 C 224.286 86.650,224.028 86.380,224.028 86.600 M130.109 92.400 C 130.109 93.390,130.187 93.795,130.282 93.300 C 130.378 92.805,130.378 91.995,130.282 91.500 C 130.187 91.005,130.109 91.410,130.109 92.400 M142.509 92.400 C 142.509 93.390,142.587 93.795,142.682 93.300 C 142.778 92.805,142.778 91.995,142.682 91.500 C 142.587 91.005,142.509 91.410,142.509 92.400 M131.601 96.538 C 134.214 99.515,138.571 99.610,140.998 96.741 L 141.794 95.800 140.797 96.650 C 137.860 99.154,134.806 99.086,131.801 96.451 L 130.603 95.400 131.601 96.538 M118.101 103.800 C 118.105 104.680,118.187 104.993,118.283 104.495 C 118.379 103.998,118.375 103.278,118.275 102.895 C 118.175 102.513,118.096 102.920,118.101 103.800 M228.909 104.800 C 228.909 105.790,228.987 106.195,229.082 105.700 C 229.178 105.205,229.178 104.395,229.082 103.900 C 228.987 103.405,228.909 103.810,228.909 104.800 M229.324 111.800 C 229.326 113.120,229.401 113.612,229.490 112.893 C 229.579 112.174,229.577 111.094,229.486 110.493 C 229.395 109.892,229.322 110.480,229.324 111.800 M117.342 116.200 C 117.341 118.180,117.408 119.040,117.492 118.112 C 117.576 117.184,117.577 115.564,117.495 114.512 C 117.412 113.460,117.343 114.220,117.342 116.200 M229.724 117.000 C 229.726 118.320,229.801 118.812,229.890 118.093 C 229.979 117.374,229.977 116.294,229.886 115.693 C 229.795 115.092,229.722 115.680,229.724 117.000 M116.901 121.400 C 116.905 122.280,116.987 122.593,117.083 122.095 C 117.179 121.598,117.175 120.878,117.075 120.495 C 116.975 120.113,116.896 120.520,116.901 121.400 M230.093 124.800 C 230.093 125.570,230.175 125.885,230.276 125.500 C 230.376 125.115,230.376 124.485,230.276 124.100 C 230.175 123.715,230.093 124.030,230.093 124.800 M116.501 125.800 C 116.505 126.680,116.587 126.993,116.683 126.495 C 116.779 125.998,116.775 125.278,116.675 124.895 C 116.575 124.513,116.496 124.920,116.501 125.800 M307.886 141.281 C 307.543 142.007,306.879 143.575,306.410 144.768 C 305.942 145.960,305.189 147.760,304.737 148.768 C 304.285 149.775,303.686 151.140,303.404 151.800 C 303.123 152.460,302.512 153.853,302.047 154.896 C 301.581 155.938,301.200 156.878,301.200 156.984 C 301.200 157.090,300.764 158.130,300.231 159.295 C 299.698 160.460,298.878 162.386,298.410 163.575 C 297.942 164.763,297.226 166.470,296.819 167.368 C 296.413 168.265,295.319 170.800,294.390 173.000 C 293.460 175.200,291.102 180.718,289.150 185.261 C 285.323 194.167,285.298 194.257,286.210 196.020 C 287.332 198.189,286.888 198.654,295.204 186.600 C 297.328 183.520,303.147 175.098,308.133 167.884 C 313.120 160.670,317.200 154.532,317.200 154.244 C 317.200 153.279,309.740 140.201,309.121 140.081 C 308.756 140.010,308.257 140.495,307.886 141.281 M310.496 142.708 C 311.235 144.332,313.278 148.078,313.601 148.400 C 313.711 148.510,314.065 149.140,314.386 149.800 C 314.708 150.460,315.293 151.478,315.686 152.062 C 316.898 153.864,315.675 156.959,312.319 160.575 C 311.924 161.002,311.600 161.572,311.600 161.842 C 311.600 162.112,311.449 162.393,311.265 162.467 C 311.080 162.540,309.461 164.760,307.666 167.400 C 305.871 170.040,303.211 173.910,301.754 176.000 C 300.298 178.090,297.822 181.690,296.253 184.000 C 294.684 186.310,293.220 188.403,293.000 188.650 C 292.780 188.898,291.520 190.738,290.200 192.738 C 287.567 196.728,287.239 196.950,286.483 195.243 C 286.031 194.222,286.086 193.835,286.955 191.936 C 287.496 190.754,288.326 188.802,288.800 187.600 C 289.274 186.398,290.081 184.497,290.594 183.376 C 291.107 182.254,293.005 177.841,294.811 173.569 C 296.618 169.296,298.454 164.990,298.890 164.000 C 299.327 163.010,299.914 161.660,300.196 161.000 C 300.477 160.340,301.088 158.947,301.553 157.904 C 302.019 156.862,302.400 155.915,302.400 155.800 C 302.400 155.685,302.781 154.738,303.247 153.696 C 303.712 152.653,304.342 151.215,304.647 150.500 C 304.951 149.785,305.488 148.525,305.841 147.700 C 306.193 146.875,306.620 145.840,306.790 145.400 C 308.562 140.805,309.366 140.221,310.496 142.708 M109.665 147.417 C 108.995 148.888,109.123 149.202,109.847 147.865 C 110.186 147.240,110.388 146.654,110.296 146.563 C 110.205 146.471,109.921 146.856,109.665 147.417 M332.400 148.800 C 331.930 149.460,331.636 150.000,331.746 150.000 C 331.856 150.000,332.330 149.460,332.800 148.800 C 333.270 148.140,333.564 147.600,333.454 147.600 C 333.344 147.600,332.870 148.140,332.400 148.800 M330.000 152.200 C 329.319 153.190,328.852 154.000,328.962 154.000 C 329.072 154.000,329.719 153.190,330.400 152.200 C 331.081 151.210,331.548 150.400,331.438 150.400 C 331.328 150.400,330.681 151.210,330.000 152.200 M105.800 154.800 C 105.459 155.460,105.269 156.000,105.379 156.000 C 105.489 156.000,105.859 155.460,106.200 154.800 C 106.541 154.140,106.731 153.600,106.621 153.600 C 106.511 153.600,106.141 154.140,105.800 154.800 M239.400 155.200 C 239.741 155.860,240.111 156.400,240.221 156.400 C 240.331 156.400,240.141 155.860,239.800 155.200 C 239.459 154.540,239.089 154.000,238.979 154.000 C 238.869 154.000,239.059 154.540,239.400 155.200 M324.350 160.500 C 323.852 161.215,322.985 162.421,322.422 163.180 C 321.860 163.939,321.592 164.443,321.827 164.301 C 322.333 163.995,325.741 159.200,325.453 159.200 C 325.344 159.200,324.847 159.785,324.350 160.500 M243.215 160.600 C 244.239 162.042,250.105 168.428,250.261 168.272 C 250.345 168.188,249.640 167.327,248.693 166.360 C 247.747 165.392,245.999 163.520,244.810 162.200 C 243.620 160.880,242.902 160.160,243.215 160.600 M95.800 168.400 C 94.717 169.500,94.003 170.382,94.215 170.359 C 94.591 170.320,98.280 166.400,97.941 166.400 C 97.847 166.400,96.883 167.300,95.800 168.400 M139.631 167.836 C 138.954 168.405,138.400 169.045,138.400 169.258 C 138.400 169.471,138.821 169.156,139.335 168.558 C 139.966 167.823,140.842 167.379,142.035 167.186 L 143.800 166.900 142.331 166.850 C 141.284 166.814,140.508 167.098,139.631 167.836 M250.845 168.700 C 250.870 168.865,251.995 169.985,253.345 171.188 L 255.800 173.376 253.413 170.888 C 250.982 168.355,250.765 168.171,250.845 168.700 M317.200 170.800 C 316.730 171.460,316.436 172.000,316.546 172.000 C 316.656 172.000,317.130 171.460,317.600 170.800 C 318.070 170.140,318.364 169.600,318.254 169.600 C 318.144 169.600,317.670 170.140,317.200 170.800 M137.856 171.284 C 137.721 171.788,137.627 172.560,137.646 173.000 C 137.665 173.440,137.845 173.098,138.046 172.240 C 138.436 170.578,138.270 169.740,137.856 171.284 M90.200 174.090 L 87.000 177.356 90.200 174.398 C 91.960 172.771,93.571 171.296,93.780 171.120 C 94.020 170.918,94.020 170.804,93.780 170.812 C 93.571 170.818,91.960 172.293,90.200 174.090 M315.200 173.600 C 314.730 174.260,314.436 174.800,314.546 174.800 C 314.656 174.800,315.130 174.260,315.600 173.600 C 316.070 172.940,316.364 172.400,316.254 172.400 C 316.144 172.400,315.670 172.940,315.200 173.600 M346.406 173.033 C 346.409 173.455,346.595 174.070,346.818 174.400 C 347.115 174.838,347.152 174.676,346.956 173.800 C 346.627 172.329,346.398 172.010,346.406 173.033 M256.023 173.200 C 256.020 173.310,258.586 176.027,261.726 179.239 C 264.865 182.450,268.756 186.815,270.374 188.939 C 271.991 191.062,273.400 192.800,273.505 192.800 C 273.734 192.800,272.246 190.779,269.236 187.000 C 267.135 184.364,256.033 172.768,256.023 173.200 M145.693 175.600 C 145.693 176.370,145.775 176.685,145.876 176.300 C 145.976 175.915,145.976 175.285,145.876 174.900 C 145.775 174.515,145.693 174.830,145.693 175.600 M310.753 180.100 C 309.831 181.475,308.432 183.492,307.644 184.582 C 306.856 185.672,306.417 186.437,306.667 186.282 C 307.197 185.955,312.940 177.600,312.635 177.600 C 312.522 177.600,311.675 178.725,310.753 180.100 M85.400 179.868 C 85.620 180.086,87.330 181.315,89.200 182.600 C 91.070 183.884,93.590 185.757,94.800 186.761 C 96.010 187.766,96.640 188.166,96.200 187.651 C 95.275 186.568,88.953 181.804,86.600 180.416 C 85.720 179.897,85.180 179.650,85.400 179.868 M136.229 181.029 C 136.081 181.615,136.038 182.172,136.132 182.266 C 136.227 182.360,136.424 181.958,136.571 181.371 C 136.719 180.785,136.762 180.228,136.668 180.134 C 136.573 180.040,136.376 180.442,136.229 181.029 M135.429 185.029 C 135.281 185.615,135.238 186.172,135.332 186.266 C 135.427 186.360,135.624 185.958,135.771 185.371 C 135.919 184.785,135.962 184.228,135.868 184.134 C 135.773 184.040,135.576 184.442,135.429 185.029 M77.915 189.717 C 69.583 196.481,59.966 215.432,54.430 236.000 C 53.076 241.029,51.288 257.957,52.200 257.111 C 52.372 256.952,52.667 254.522,52.858 251.711 C 53.682 239.526,55.216 233.070,60.490 219.600 C 63.432 212.084,69.811 199.446,71.189 198.400 C 71.334 198.290,72.008 197.390,72.686 196.400 C 74.320 194.014,79.729 188.800,80.569 188.800 C 80.934 188.800,81.620 189.160,82.092 189.600 C 82.564 190.040,83.187 190.400,83.475 190.400 C 83.764 190.400,84.000 190.541,84.000 190.714 C 84.000 190.886,84.533 191.343,85.185 191.728 C 85.837 192.113,86.607 192.647,86.895 192.914 C 87.183 193.181,88.584 194.390,90.007 195.600 C 100.129 204.207,109.138 216.959,113.604 229.000 C 113.767 229.440,114.092 230.280,114.326 230.866 C 115.251 233.181,110.328 234.024,102.827 232.836 C 94.564 231.527,87.200 235.681,87.200 241.651 C 87.200 242.037,87.039 242.452,86.842 242.574 C 85.536 243.381,84.891 259.072,86.002 263.000 C 89.563 275.583,95.686 284.537,106.390 292.816 C 107.375 293.577,108.416 294.419,108.705 294.686 C 108.993 294.953,109.763 295.487,110.415 295.872 C 111.067 296.257,111.600 296.714,111.600 296.886 C 111.600 297.059,111.793 297.200,112.028 297.200 C 112.263 297.200,113.235 297.736,114.187 298.391 C 115.139 299.046,116.972 300.149,118.259 300.843 C 122.023 302.869,121.737 301.773,121.767 314.284 C 121.791 324.249,121.051 357.436,120.545 369.112 L 120.350 373.624 117.475 372.076 C 112.706 369.509,103.816 363.869,101.273 361.798 C 100.903 361.496,99.520 360.394,98.200 359.348 C 91.895 354.353,83.366 346.099,79.600 341.345 C 79.270 340.928,78.266 339.690,77.369 338.594 C 76.472 337.497,75.130 335.700,74.388 334.600 C 73.645 333.500,72.804 332.362,72.519 332.071 C 72.234 331.781,72.000 331.389,72.000 331.200 C 72.000 331.011,71.769 330.619,71.488 330.329 C 70.145 328.944,65.017 319.645,62.465 313.968 C 59.335 307.005,56.353 297.751,54.871 290.400 C 54.627 289.190,54.318 287.660,54.184 287.000 C 54.050 286.340,53.800 284.581,53.628 283.091 C 53.457 281.602,53.175 280.252,53.002 280.091 C 52.165 279.314,53.874 289.219,55.955 297.200 C 63.964 327.916,85.196 354.579,115.340 371.775 C 118.779 373.736,120.201 374.359,120.519 374.041 C 121.596 372.964,123.143 305.202,122.150 302.614 C 122.013 302.256,120.978 301.498,119.850 300.931 C 97.685 289.772,84.189 269.706,85.983 250.579 C 87.326 236.261,92.164 231.719,103.900 233.757 C 108.531 234.562,110.175 234.564,112.504 233.771 C 115.445 232.769,115.523 232.492,114.009 228.484 C 108.316 213.418,97.298 199.294,84.037 190.063 C 80.460 187.572,80.551 187.577,77.915 189.717 M101.193 192.500 C 105.087 196.494,105.600 196.982,105.600 196.693 C 105.600 196.634,103.665 194.699,101.300 192.393 L 97.000 188.200 101.193 192.500 M342.800 198.238 C 338.510 201.651,334.730 204.742,334.400 205.108 C 333.843 205.725,333.858 205.727,334.600 205.136 C 335.040 204.786,338.964 201.687,343.320 198.250 C 347.676 194.812,351.096 192.008,350.920 192.017 C 350.744 192.026,347.090 194.826,342.800 198.238 M298.717 197.500 C 297.075 199.797,296.701 200.400,296.918 200.400 C 297.010 200.400,297.842 199.320,298.768 198.000 C 299.694 196.680,300.366 195.600,300.263 195.600 C 300.160 195.600,299.464 196.455,298.717 197.500 M107.617 199.600 C 110.010 202.601,110.891 203.528,109.708 201.800 C 109.257 201.140,108.135 199.790,107.216 198.800 C 105.858 197.338,105.933 197.488,107.617 199.600 M277.600 199.320 C 277.600 199.704,279.645 202.800,279.899 202.800 C 280.078 202.800,279.441 201.719,278.139 199.811 C 277.842 199.377,277.600 199.156,277.600 199.320 M113.037 206.900 C 113.849 208.165,114.588 209.200,114.679 209.200 C 114.947 209.200,113.500 206.882,112.490 205.694 C 111.979 205.092,112.225 205.635,113.037 206.900 M327.600 210.237 C 324.410 212.770,321.530 215.138,321.200 215.499 C 320.570 216.188,321.292 215.639,328.900 209.644 C 332.937 206.463,333.994 205.537,333.500 205.616 C 333.445 205.625,330.790 207.704,327.600 210.237 M292.667 206.267 C 292.305 206.628,292.328 207.908,292.700 208.138 C 292.865 208.240,293.000 207.801,293.000 207.162 C 293.000 206.523,292.985 206.000,292.967 206.000 C 292.948 206.000,292.813 206.120,292.667 206.267 M137.515 207.810 C 137.392 208.245,137.169 208.960,137.020 209.400 C 136.871 209.840,137.042 209.694,137.400 209.076 C 137.758 208.458,137.981 207.742,137.895 207.486 C 137.810 207.230,137.639 207.376,137.515 207.810 M337.200 214.643 C 332.910 218.057,324.364 224.842,318.208 229.721 C 311.654 234.917,307.279 238.643,307.649 238.714 C 307.997 238.781,314.743 236.047,322.641 232.638 C 359.585 216.690,359.000 216.955,359.000 216.200 C 359.000 215.448,346.848 208.396,345.600 208.424 C 345.270 208.431,341.490 211.230,337.200 214.643 M351.021 211.900 C 353.662 213.385,356.312 214.855,356.911 215.168 C 357.965 215.717,358.419 216.800,357.596 216.800 C 357.373 216.800,356.338 217.181,355.296 217.647 C 354.253 218.112,352.770 218.762,352.000 219.090 C 351.230 219.419,350.077 219.938,349.439 220.244 C 348.800 220.550,348.035 220.800,347.739 220.800 C 347.442 220.800,347.200 220.980,347.200 221.200 C 347.200 221.420,346.928 221.600,346.595 221.600 C 346.262 221.600,345.677 221.765,345.295 221.966 C 344.913 222.168,343.925 222.618,343.100 222.966 C 340.188 224.197,338.581 224.892,336.800 225.692 C 335.810 226.137,334.640 226.636,334.200 226.800 C 333.760 226.964,332.590 227.463,331.600 227.908 C 329.467 228.866,328.357 229.347,322.800 231.720 C 320.490 232.706,316.927 234.253,314.882 235.157 C 310.707 237.002,309.663 237.229,311.464 235.900 C 312.135 235.405,313.385 234.436,314.242 233.747 C 315.099 233.058,318.680 230.214,322.200 227.428 C 325.720 224.641,329.050 222.004,329.600 221.567 C 330.150 221.130,331.122 220.374,331.760 219.886 C 332.398 219.399,335.691 216.795,339.079 214.100 C 346.336 208.327,345.078 208.558,351.021 211.900 M284.028 211.000 C 284.028 211.220,284.286 211.850,284.600 212.400 C 284.914 212.950,285.172 213.220,285.172 213.000 C 285.172 212.780,284.914 212.150,284.600 211.600 C 284.286 211.050,284.028 210.780,284.028 211.000 M116.600 212.800 C 116.941 213.460,117.311 214.000,117.421 214.000 C 117.531 214.000,117.341 213.460,117.000 212.800 C 116.659 212.140,116.289 211.600,116.179 211.600 C 116.069 211.600,116.259 212.140,116.600 212.800 M124.865 217.017 C 124.195 218.488,124.323 218.802,125.047 217.465 C 125.386 216.840,125.588 216.254,125.496 216.163 C 125.405 216.071,125.121 216.456,124.865 217.017 M317.275 218.369 C 315.666 219.636,313.956 221.083,313.475 221.585 C 312.994 222.087,314.268 221.194,316.306 219.600 C 319.451 217.142,320.860 215.891,320.324 216.033 C 320.256 216.051,318.884 217.102,317.275 218.369 M286.400 216.484 C 286.400 216.916,287.615 219.600,287.811 219.600 C 287.921 219.600,287.733 218.934,287.393 218.121 C 286.793 216.686,286.400 216.038,286.400 216.484 M310.791 223.530 C 310.026 224.151,307.641 226.052,305.491 227.754 L 301.582 230.850 301.007 229.525 C 300.690 228.796,300.424 228.495,300.416 228.856 C 300.344 231.863,305.613 229.137,312.180 222.769 C 313.003 221.970,312.106 222.462,310.791 223.530 M122.198 236.927 C 120.877 238.067,119.347 239.323,118.798 239.717 C 117.838 240.407,117.851 240.407,119.137 239.717 C 120.346 239.069,125.280 234.824,124.800 234.845 C 124.690 234.850,123.519 235.787,122.198 236.927 M116.200 241.014 C 115.195 241.498,115.163 241.553,116.000 241.351 C 116.550 241.219,117.171 240.950,117.380 240.755 C 117.898 240.271,117.614 240.333,116.200 241.014 M96.945 241.506 C 96.695 241.668,98.135 241.815,100.145 241.832 C 102.911 241.857,103.411 241.789,102.200 241.555 C 100.134 241.156,97.525 241.132,96.945 241.506 M113.503 241.831 C 113.376 241.958,111.681 242.217,109.736 242.406 L 106.200 242.751 109.600 242.614 C 112.484 242.497,116.313 241.703,114.367 241.625 C 114.018 241.611,113.630 241.704,113.503 241.831 M94.229 248.229 C 94.081 248.815,94.038 249.372,94.132 249.466 C 94.227 249.560,94.424 249.158,94.571 248.571 C 94.719 247.985,94.762 247.428,94.668 247.334 C 94.573 247.240,94.376 247.642,94.229 248.229 M295.301 250.600 C 295.305 251.480,295.387 251.793,295.483 251.295 C 295.579 250.798,295.575 250.078,295.475 249.695 C 295.375 249.313,295.296 249.720,295.301 250.600 M295.709 256.400 C 295.709 257.390,295.787 257.795,295.882 257.300 C 295.978 256.805,295.978 255.995,295.882 255.500 C 295.787 255.005,295.709 255.410,295.709 256.400 M296.084 263.000 C 296.035 265.640,295.913 269.060,295.814 270.600 L 295.634 273.400 296.028 270.600 C 296.244 269.060,296.365 265.640,296.297 263.000 L 296.173 258.200 296.084 263.000 M51.754 263.600 C 51.754 266.350,51.818 267.475,51.896 266.100 C 51.974 264.725,51.974 262.475,51.896 261.100 C 51.818 259.725,51.754 260.850,51.754 263.600 M94.068 259.400 C 94.062 259.840,94.211 260.560,94.400 261.000 C 94.838 262.019,94.838 260.968,94.400 259.600 C 94.143 258.796,94.077 258.757,94.068 259.400 M52.087 272.800 C 52.083 274.230,52.216 276.390,52.383 277.600 C 52.664 279.632,52.688 279.525,52.696 276.200 C 52.701 274.220,52.568 272.060,52.400 271.400 C 52.167 270.482,52.093 270.812,52.087 272.800 M100.391 274.388 C 100.857 275.041,101.442 275.702,101.691 275.856 C 101.941 276.011,101.641 275.476,101.025 274.668 C 99.688 272.915,99.184 272.692,100.391 274.388 M295.301 277.400 C 295.305 278.280,295.387 278.593,295.483 278.095 C 295.579 277.598,295.575 276.878,295.475 276.495 C 295.375 276.113,295.296 276.520,295.301 277.400 M105.019 280.037 C 108.223 283.354,118.400 291.411,118.400 290.630 C 118.400 290.520,117.299 289.682,115.954 288.768 C 113.000 286.762,105.375 280.269,104.695 279.180 C 104.427 278.751,104.034 278.400,103.823 278.400 C 103.611 278.400,104.149 279.137,105.019 280.037 M293.450 288.450 C 293.309 289.153,293.269 289.802,293.359 289.892 C 293.450 289.983,293.648 289.491,293.800 288.800 C 293.952 288.109,293.993 287.459,293.891 287.358 C 293.789 287.256,293.591 287.747,293.450 288.450 M292.629 292.229 C 292.481 292.815,292.438 293.372,292.532 293.466 C 292.627 293.560,292.824 293.158,292.971 292.571 C 293.119 291.985,293.162 291.428,293.068 291.334 C 292.973 291.240,292.776 291.642,292.629 292.229 M120.800 292.199 C 120.800 292.465,128.049 296.085,128.226 295.907 C 128.304 295.829,126.666 294.919,124.584 293.885 C 122.503 292.851,120.800 292.092,120.800 292.199 M129.200 296.333 C 129.530 296.536,130.250 296.824,130.800 296.971 C 131.495 297.157,131.617 297.125,131.200 296.867 C 130.870 296.664,130.150 296.376,129.600 296.229 C 128.905 296.043,128.783 296.075,129.200 296.333 M134.600 298.211 C 135.480 298.501,136.560 298.736,137.000 298.733 C 137.440 298.731,136.900 298.478,135.800 298.172 C 133.297 297.476,132.452 297.503,134.600 298.211 M139.000 299.200 C 139.660 299.368,140.830 299.506,141.600 299.507 L 143.000 299.508 141.400 299.177 C 139.245 298.731,137.234 298.751,139.000 299.200 M131.382 306.502 C 131.276 306.779,131.239 313.214,131.300 320.802 L 131.411 334.600 131.505 320.465 L 131.600 306.330 133.300 306.551 C 134.548 306.713,134.734 306.680,134.000 306.426 C 132.514 305.911,131.599 305.938,131.382 306.502 M144.200 306.827 C 143.540 307.250,142.280 307.626,141.400 307.662 C 139.851 307.726,139.843 307.733,141.147 307.893 C 142.601 308.071,144.492 307.453,145.236 306.557 C 145.827 305.844,145.671 305.885,144.200 306.827 M136.000 307.187 C 136.991 307.517,139.887 307.735,139.567 307.454 C 139.475 307.374,138.410 307.206,137.200 307.081 C 135.780 306.934,135.354 306.971,136.000 307.187 M287.300 309.100 C 286.813 310.337,286.478 311.411,286.555 311.489 C 286.632 311.566,287.102 310.626,287.600 309.400 C 288.098 308.174,288.433 307.099,288.345 307.011 C 288.257 306.924,287.787 307.863,287.300 309.100 M282.883 319.013 C 282.182 320.436,281.693 321.600,281.798 321.600 C 282.066 321.600,284.485 316.751,284.306 316.572 C 284.225 316.492,283.585 317.590,282.883 319.013 M279.800 324.800 C 279.459 325.460,279.269 326.000,279.379 326.000 C 279.489 326.000,279.859 325.460,280.200 324.800 C 280.541 324.140,280.731 323.600,280.621 323.600 C 280.511 323.600,280.141 324.140,279.800 324.800 M277.508 328.500 C 276.633 329.849,275.848 331.456,276.287 331.000 C 276.848 330.417,278.498 327.600,278.279 327.600 C 278.176 327.600,277.829 328.005,277.508 328.500 M275.123 332.300 C 274.198 333.379,271.809 337.079,272.476 336.400 C 273.267 335.596,276.114 331.600,275.896 331.600 C 275.801 331.600,275.454 331.915,275.123 332.300 M268.552 341.098 C 266.827 343.242,263.218 347.243,260.532 349.989 C 257.845 352.734,255.697 355.030,255.757 355.090 C 255.930 355.263,265.219 345.640,267.235 343.200 C 270.616 339.109,272.097 337.200,271.892 337.200 C 271.779 337.200,270.276 338.954,268.552 341.098 M130.946 353.400 C 130.947 355.600,131.014 356.449,131.095 355.287 C 131.176 354.124,131.176 352.324,131.093 351.287 C 131.011 350.249,130.945 351.200,130.946 353.400 M252.118 357.730 C 248.652 360.700,247.565 361.830,249.887 360.048 C 251.774 358.600,255.510 355.224,255.200 355.246 C 255.090 355.254,253.703 356.372,252.118 357.730 M130.542 362.200 C 130.541 364.180,130.608 365.040,130.692 364.112 C 130.776 363.184,130.777 361.564,130.695 360.512 C 130.612 359.460,130.543 360.220,130.542 362.200 M245.600 362.853 C 244.390 363.725,243.130 364.729,242.800 365.086 C 242.089 365.853,246.244 363.001,247.389 361.934 C 248.590 360.816,248.026 361.106,245.600 362.853 M239.031 367.411 C 236.050 369.342,235.198 370.021,236.800 369.189 C 238.097 368.515,242.000 365.929,242.000 365.743 C 242.000 365.498,241.874 365.569,239.031 367.411 M228.400 373.362 C 226.090 374.528,222.544 376.177,220.519 377.027 C 218.494 377.876,216.905 378.639,216.988 378.721 C 217.347 379.081,232.800 371.923,232.800 371.396 C 232.800 371.125,233.056 371.011,228.400 373.362 M130.069 375.851 C 129.996 378.450,130.255 378.920,132.000 379.347 C 132.812 379.546,132.774 379.488,131.800 379.037 C 130.696 378.527,130.582 378.280,130.369 375.941 L 130.138 373.400 130.069 375.851 M212.600 380.000 C 210.840 380.626,209.593 381.151,209.830 381.169 C 210.326 381.205,216.029 379.304,216.332 379.002 C 216.714 378.619,215.790 378.866,212.600 380.000 M138.053 381.388 C 139.513 381.898,141.313 382.424,142.053 382.556 C 142.794 382.688,141.780 382.260,139.800 381.606 C 137.820 380.952,136.020 380.426,135.800 380.438 C 135.580 380.450,136.594 380.877,138.053 381.388 M206.000 382.026 C 204.580 382.509,204.292 382.690,205.186 382.537 C 206.810 382.258,209.676 381.251,208.800 381.267 C 208.470 381.273,207.210 381.615,206.000 382.026 M144.400 383.200 C 144.950 383.376,145.760 383.520,146.200 383.520 C 146.833 383.520,146.792 383.454,146.000 383.200 C 145.450 383.024,144.640 382.880,144.200 382.880 C 143.567 382.880,143.608 382.946,144.400 383.200 M198.600 383.791 C 197.500 384.074,196.960 384.309,197.400 384.314 C 197.840 384.319,199.100 384.092,200.200 383.809 C 201.300 383.526,201.840 383.291,201.400 383.286 C 200.960 383.281,199.700 383.508,198.600 383.791 M149.000 384.209 C 150.100 384.492,151.450 384.722,152.000 384.721 C 152.550 384.719,151.920 384.474,150.600 384.176 C 147.576 383.494,146.318 383.520,149.000 384.209 M193.000 384.800 C 191.337 385.223,192.974 385.242,195.000 384.823 C 196.345 384.545,196.409 384.492,195.400 384.493 C 194.740 384.494,193.660 384.632,193.000 384.800 M156.100 385.476 C 156.485 385.576,157.115 385.576,157.500 385.476 C 157.885 385.375,157.570 385.293,156.800 385.293 C 156.030 385.293,155.715 385.375,156.100 385.476 M184.800 385.840 L 180.600 386.355 184.400 386.139 C 188.538 385.904,193.004 385.289,190.400 385.313 C 189.630 385.320,187.110 385.557,184.800 385.840 M160.200 386.000 C 162.265 386.341,166.261 386.515,165.967 386.251 C 165.875 386.169,164.090 386.004,162.000 385.885 C 159.290 385.731,158.774 385.764,160.200 386.000 M170.120 386.698 C 172.055 386.772,175.115 386.771,176.920 386.697 C 178.724 386.623,177.140 386.563,173.400 386.564 C 169.660 386.564,168.184 386.625,170.120 386.698 " stroke="none" fill="#a8a7a0" fill-rule="evenodd"></path><path id="path4" d="M96.539 106.586 C 96.756 107.152,100.638 112.646,105.123 118.737 C 106.534 120.653,107.422 121.538,107.678 121.282 C 108.103 120.857,108.939 106.948,108.575 106.359 C 108.159 105.686,96.280 105.910,96.539 106.586 M85.693 254.000 C 85.693 254.770,85.775 255.085,85.876 254.700 C 85.976 254.315,85.976 253.685,85.876 253.300 C 85.775 252.915,85.693 253.230,85.693 254.000 M51.714 257.000 C 51.717 258.100,51.795 258.503,51.887 257.895 C 51.979 257.286,51.977 256.386,51.882 255.895 C 51.787 255.403,51.711 255.900,51.714 257.000 M51.724 270.600 C 51.726 271.920,51.801 272.412,51.890 271.693 C 51.979 270.974,51.977 269.894,51.886 269.293 C 51.795 268.692,51.722 269.280,51.724 270.600 M98.400 284.600 C 99.146 285.370,99.847 286.000,99.957 286.000 C 100.067 286.000,99.546 285.370,98.800 284.600 C 98.054 283.830,97.353 283.200,97.243 283.200 C 97.133 283.200,97.654 283.830,98.400 284.600 M101.200 287.325 C 101.200 287.394,101.785 287.979,102.500 288.625 L 103.800 289.800 102.625 288.500 C 101.530 287.288,101.200 287.016,101.200 287.325 M122.144 338.000 C 122.144 340.090,122.212 340.945,122.294 339.900 C 122.376 338.855,122.376 337.145,122.294 336.100 C 122.212 335.055,122.144 335.910,122.144 338.000 M121.701 350.200 C 121.705 351.080,121.787 351.393,121.883 350.895 C 121.979 350.398,121.975 349.678,121.875 349.295 C 121.775 348.913,121.696 349.320,121.701 350.200 M121.309 367.600 C 121.309 368.590,121.387 368.995,121.482 368.500 C 121.578 368.005,121.578 367.195,121.482 366.700 C 121.387 366.205,121.309 366.610,121.309 367.600 " stroke="none" fill="#cda969" fill-rule="evenodd"></path></g></svg>