<svg id="svg" version="1.1" xmlns="http://www.w3.org/2000/svg" xmlns:xlink="http://www.w3.org/1999/xlink" width="400" height="488.7096774193548" viewBox="0, 0, 400,488.7096774193548"><g id="svgg"><path id="path0" d="M170.894 92.759 C 169.345 93.000,167.471 93.361,166.729 93.560 L 165.381 93.924 171.801 100.350 C 175.332 103.884,178.339 106.737,178.482 106.689 C 179.072 106.492,188.679 94.034,188.432 93.787 C 187.136 92.490,176.588 91.872,170.894 92.759 M268.122 103.145 C 267.946 103.988,266.026 113.211,263.853 123.641 C 259.584 144.140,259.730 142.873,261.403 144.973 L 262.110 145.859 269.625 128.704 C 273.759 119.268,277.076 111.382,276.997 111.178 C 276.839 110.771,268.765 101.613,268.565 101.613 C 268.496 101.613,268.297 102.302,268.122 103.145 M310.484 174.238 C 304.629 181.004,299.791 186.664,299.733 186.814 C 299.589 187.186,302.601 191.986,302.904 191.868 C 303.464 191.650,339.654 168.211,339.658 168.065 C 339.661 167.927,322.624 162.248,321.514 162.016 C 321.302 161.972,316.339 167.472,310.484 174.238 M144.981 259.610 C 133.903 270.446,120.857 281.319,107.581 290.784 C 104.919 292.681,102.404 294.478,101.990 294.778 C 99.592 296.514,92.380 328.246,89.958 347.714 L 89.219 353.653 91.303 355.577 C 128.724 390.114,183.791 399.642,230.645 379.686 C 247.519 372.499,265.986 359.709,276.786 347.729 L 279.068 345.197 278.397 340.744 C 275.898 324.165,272.339 307.763,268.512 295.188 C 266.852 289.735,267.194 290.240,265.080 290.110 C 219.690 287.304,184.028 276.815,155.435 257.863 C 152.658 256.022,150.335 254.522,150.273 254.530 C 150.212 254.537,147.830 256.823,144.981 259.610 " stroke="none" fill="#fbf3da" fill-rule="evenodd"></path><path id="path1" d="M168.710 32.427 C 144.710 35.757,124.204 50.628,114.008 72.097 C 109.334 81.939,107.967 88.597,107.254 105.000 C 106.277 127.500,98.028 144.510,80.375 160.432 C 35.676 200.746,22.993 266.981,49.480 321.774 C 67.219 358.470,102.052 386.742,142.097 396.947 C 144.048 397.445,145.675 397.869,145.713 397.891 C 146.036 398.080,140.531 421.211,138.522 428.104 C 138.402 428.515,137.731 428.677,135.394 428.856 C 127.209 429.485,123.226 431.127,123.226 433.873 C 123.226 435.886,124.873 436.198,130.161 435.186 C 131.048 435.016,132.903 434.869,134.283 434.858 L 136.791 434.839 135.135 437.177 C 127.119 448.499,126.853 449.677,132.316 449.677 C 134.630 449.677,134.919 449.426,138.066 444.675 C 141.236 439.890,141.452 439.935,141.207 445.323 C 141.003 449.798,141.414 450.323,145.122 450.323 C 148.177 450.323,148.776 448.559,148.164 441.371 C 147.963 439.009,147.984 438.065,148.237 438.065 C 149.827 438.065,155.394 440.531,158.387 442.561 C 163.678 446.151,165.332 440.961,160.154 437.019 C 158.422 435.701,153.562 433.131,150.559 431.945 C 148.114 430.980,148.148 431.634,150.127 423.819 C 151.775 417.313,154.332 406.119,155.180 401.698 C 155.526 399.895,155.637 399.702,156.251 399.843 C 168.304 402.608,194.160 401.677,210.592 397.887 C 212.738 397.392,213.226 397.463,213.226 398.270 C 213.226 399.232,215.558 409.657,217.646 418.026 C 220.058 427.691,220.150 426.639,216.772 427.938 C 211.722 429.880,206.461 433.245,205.486 435.157 C 203.527 438.996,206.020 440.612,209.967 438.061 C 213.111 436.029,218.666 433.558,220.115 433.548 C 220.140 433.548,220.114 436.134,220.055 439.294 C 219.937 445.740,219.933 445.729,222.225 446.036 C 225.900 446.529,227.247 445.377,226.978 441.969 C 226.872 440.620,226.891 438.771,227.021 437.859 L 227.258 436.202 230.161 440.516 C 233.713 445.793,236.141 446.860,239.171 444.476 C 240.374 443.530,240.384 443.554,235.799 436.901 L 231.597 430.806 234.105 430.699 C 235.580 430.636,237.924 430.827,239.796 431.163 C 243.507 431.830,244.590 431.546,244.785 429.857 C 245.126 426.895,240.961 425.032,233.041 424.605 L 229.791 424.429 229.249 422.457 C 226.799 413.540,222.367 394.916,222.641 394.688 C 222.696 394.642,223.758 394.277,225.000 393.877 C 303.968 368.463,343.670 280.621,309.992 205.827 C 309.252 204.183,308.769 202.725,308.920 202.587 C 309.070 202.449,317.903 196.719,328.548 189.852 C 352.887 174.154,352.419 174.583,352.419 167.903 C 352.419 160.439,350.246 158.485,337.339 154.346 C 333.480 153.109,330.323 151.985,330.323 151.848 C 330.323 151.711,330.675 151.058,331.106 150.396 C 332.462 148.314,333.004 146.074,332.823 143.295 L 332.661 140.806 320.491 117.419 C 313.797 104.556,307.540 92.479,306.585 90.581 C 303.766 84.974,301.187 83.100,296.290 83.100 C 290.797 83.100,288.539 85.122,285.035 93.180 C 283.773 96.082,282.623 98.450,282.478 98.441 C 282.334 98.432,280.737 96.797,278.930 94.806 C 274.487 89.910,273.142 89.194,268.387 89.194 C 259.854 89.194,258.130 91.590,254.646 108.290 C 253.321 114.642,252.142 120.129,252.027 120.484 C 251.507 122.079,250.510 113.017,250.003 102.097 C 249.365 88.361,248.262 82.340,244.962 74.600 C 232.543 45.463,200.897 27.961,168.710 32.427 M188.710 44.353 C 208.504 47.610,224.588 59.459,232.936 76.935 C 236.636 84.680,237.650 89.640,238.377 103.548 C 240.028 135.117,245.637 148.353,264.428 165.026 C 277.595 176.709,285.142 185.417,292.082 196.935 C 314.396 233.969,316.300 279.408,297.140 317.656 C 293.923 324.077,288.602 332.903,288.194 332.495 C 288.119 332.420,287.702 330.339,287.268 327.872 C 285.126 315.689,280.423 295.807,278.492 290.775 C 278.346 290.396,279.348 290.323,284.656 290.323 C 293.128 290.323,295.016 289.339,294.953 284.961 C 294.886 280.314,293.315 279.677,281.914 279.677 C 234.368 279.676,193.086 269.096,162.016 248.949 C 157.375 245.939,157.580 246.488,160.060 243.697 C 169.112 233.511,177.918 221.736,185.032 210.307 L 186.346 208.195 189.705 207.609 C 208.070 204.403,227.517 196.366,245.161 184.689 C 250.588 181.097,257.072 176.188,258.078 174.910 C 260.842 171.396,258.342 166.377,253.828 166.377 C 252.008 166.377,251.885 166.449,245.844 171.023 C 231.473 181.904,212.809 190.974,196.172 195.160 C 194.688 195.534,193.417 195.783,193.348 195.714 C 193.279 195.645,194.586 192.770,196.254 189.326 C 202.619 176.178,213.036 149.510,215.591 139.825 C 218.704 128.022,215.926 119.397,207.411 114.426 C 199.678 109.910,193.157 111.445,188.207 118.946 C 184.934 123.907,182.626 124.567,177.046 122.137 C 167.524 117.991,160.514 119.241,157.547 125.612 C 155.454 130.108,157.020 134.338,162.523 139.044 C 165.613 141.688,165.373 142.469,159.186 149.912 C 147.615 163.832,120.306 176.569,90.190 182.091 C 83.123 183.387,80.900 185.849,82.873 190.193 C 84.498 193.771,86.458 193.906,98.483 191.263 C 128.813 184.597,152.882 172.781,166.381 157.929 C 176.477 146.821,178.019 139.146,171.450 132.704 C 168.981 130.284,169.049 130.241,172.656 131.931 C 182.452 136.522,191.231 134.047,196.993 125.068 C 198.995 121.949,200.594 121.959,203.810 125.111 C 207.536 128.762,207.126 132.692,201.348 148.710 C 187.646 186.695,176.238 207.785,156.854 230.968 C 136.298 255.552,108.369 279.120,78.710 296.909 C 70.889 301.600,69.816 303.071,71.417 306.903 C 73.059 310.831,76.251 310.883,82.563 307.084 C 84.927 305.660,86.914 304.548,86.977 304.612 C 87.041 304.675,86.439 307.474,85.640 310.831 C 83.761 318.725,81.558 329.963,80.491 337.097 C 80.026 340.202,79.544 343.220,79.420 343.804 L 79.194 344.866 77.130 342.410 C 44.864 304.013,38.415 251.670,60.422 206.788 C 67.511 192.330,75.546 181.677,89.507 168.230 C 102.770 155.454,109.881 144.692,115.044 129.580 C 117.563 122.205,118.162 118.404,118.867 105.323 C 119.693 89.986,121.321 83.105,126.264 74.075 C 135.073 57.979,152.063 46.510,170.484 44.226 C 172.081 44.028,173.823 43.806,174.355 43.732 C 176.335 43.458,185.750 43.866,188.710 44.353 M151.290 69.434 C 147.112 71.666,147.028 77.259,151.139 79.587 C 154.957 81.749,160.018 78.905,159.993 74.610 C 159.968 70.230,155.156 67.369,151.290 69.434 M198.139 69.114 C 196.734 69.564,194.959 71.582,194.514 73.235 C 193.048 78.677,200.155 82.695,204.303 78.770 C 208.985 74.340,204.373 67.115,198.139 69.114 M170.968 83.559 C 158.144 85.321,152.513 88.437,153.432 93.263 C 153.807 95.231,154.361 95.863,164.733 106.169 C 179.848 121.186,178.831 121.242,191.969 104.677 C 200.778 93.570,201.152 92.744,198.908 89.352 C 196.087 85.091,181.633 82.094,170.968 83.559 M183.065 92.273 C 185.621 92.640,189.034 93.533,189.028 93.833 C 189.024 94.036,179.679 105.899,178.840 106.767 C 178.424 107.196,165.161 94.665,165.161 93.843 C 165.161 93.662,171.560 92.389,173.710 92.143 C 175.859 91.897,180.940 91.968,183.065 92.273 M308.057 119.516 C 314.140 131.226,319.526 141.535,320.024 142.426 L 320.931 144.046 310.742 155.813 C 305.138 162.285,298.701 169.716,296.437 172.327 L 292.320 177.073 289.112 173.288 C 285.211 168.688,279.103 162.505,274.421 158.420 C 272.510 156.752,270.987 155.282,271.038 155.153 C 273.767 148.159,296.377 97.554,296.644 97.843 C 296.838 98.053,301.974 107.806,308.057 119.516 M273.026 106.276 L 277.430 111.262 269.995 128.258 C 265.906 137.606,262.445 145.462,262.303 145.715 C 262.111 146.057,261.745 145.737,260.866 144.458 L 259.687 142.742 263.865 122.742 C 268.372 101.166,268.345 101.290,268.511 101.290 C 268.573 101.290,270.604 103.534,273.026 106.276 M330.887 164.892 C 335.899 166.528,339.993 167.947,339.984 168.046 C 339.972 168.186,325.193 177.780,303.554 191.696 L 302.672 192.263 301.005 189.643 C 299.591 187.422,299.400 186.944,299.749 186.504 C 300.392 185.694,316.637 166.891,318.954 164.274 C 321.475 161.428,320.049 161.354,330.887 164.892 M155.202 257.516 C 179.813 273.941,211.593 284.563,248.018 288.538 C 252.637 289.042,264.540 289.999,266.195 290.000 C 268.442 290.001,276.337 322.866,278.767 342.335 L 279.162 345.505 275.468 349.240 C 233.452 391.727,172.264 402.202,120.161 375.828 C 108.981 370.169,101.560 364.973,90.549 355.098 L 89.002 353.710 89.837 347.264 C 91.892 331.393,95.097 315.860,99.399 300.927 L 101.037 295.241 104.632 292.727 C 119.590 282.264,135.716 268.805,147.090 257.290 C 148.772 255.587,150.166 254.194,150.187 254.194 C 150.208 254.194,152.465 255.689,155.202 257.516 " stroke="none" fill="#1c1c1c" fill-rule="evenodd"></path><path id="path2" d="M170.806 44.353 C 140.879 48.579,121.105 70.417,119.354 101.177 C 118.285 119.960,117.915 122.271,114.436 131.935 C 109.533 145.555,102.872 155.308,89.320 168.710 C 84.566 173.411,79.592 178.520,78.267 180.063 C 43.332 220.725,37.850 279.364,64.760 324.532 C 70.319 333.863,79.114 345.470,79.291 343.710 C 79.922 337.465,83.061 320.653,85.364 311.190 C 86.176 307.852,86.789 305.068,86.726 305.005 C 86.663 304.942,84.837 305.961,82.670 307.269 C 76.908 310.746,74.820 311.013,72.390 308.584 C 68.832 305.026,70.211 301.829,77.104 297.659 C 107.822 279.077,133.977 257.373,154.539 233.404 C 175.198 209.322,186.986 187.877,201.182 148.548 C 207.570 130.852,207.582 126.758,201.257 123.531 C 199.293 122.529,198.764 122.760,197.039 125.375 C 191.337 134.015,181.894 136.812,173.237 132.425 C 170.405 130.990,169.614 130.794,170.944 131.858 C 179.069 138.357,176.684 147.960,163.750 160.823 C 149.972 174.526,126.153 185.607,97.258 191.756 C 85.163 194.330,82.710 193.777,82.320 188.384 C 82.056 184.724,83.825 183.030,88.871 182.114 C 124.277 175.688,151.716 161.779,162.962 144.555 C 164.982 141.461,165.013 141.591,161.475 138.306 C 155.607 132.858,154.818 127.271,159.280 122.746 C 163.360 118.607,169.182 118.367,177.208 122.007 C 182.560 124.434,184.863 123.710,188.215 118.548 C 197.386 104.423,217.806 114.149,216.999 132.258 C 216.627 140.586,206.722 168.077,196.106 190.242 C 194.625 193.333,193.761 195.484,194.000 195.484 C 194.730 195.484,204.281 192.647,207.581 191.450 C 221.234 186.497,236.058 178.414,246.867 170.030 C 253.013 165.262,255.679 164.858,258.300 168.294 C 260.625 171.343,259.619 174.176,254.860 177.981 C 237.010 192.253,211.995 203.780,190.334 207.715 C 186.093 208.486,186.564 208.128,183.716 212.742 C 178.003 222.000,169.703 233.016,160.903 243.022 C 157.831 246.516,157.726 245.903,161.855 248.612 C 192.386 268.645,231.541 278.814,280.849 279.517 C 286.550 279.598,291.558 279.798,291.978 279.961 C 295.846 281.463,296.225 287.515,292.593 289.774 C 291.535 290.432,290.984 290.492,285.067 290.589 C 279.272 290.684,278.697 290.744,278.848 291.234 C 281.938 301.281,285.189 314.923,287.201 326.290 L 288.285 332.419 290.070 329.677 C 316.113 289.663,316.677 237.123,291.500 196.364 C 284.349 184.787,278.522 178.050,265.484 166.285 C 245.336 148.103,240.021 136.059,238.228 104.516 C 237.451 90.844,236.780 86.841,234.143 80.161 C 224.515 55.771,197.622 40.567,170.806 44.353 M157.135 69.374 C 160.582 71.133,161.245 75.928,158.429 78.743 C 153.104 84.069,144.705 77.045,149.069 70.916 C 150.733 68.579,154.256 67.906,157.135 69.374 M201.774 68.743 C 208.951 70.704,207.035 81.544,199.686 80.558 C 193.257 79.696,192.144 70.207,198.312 68.847 C 198.797 68.741,199.339 68.605,199.516 68.546 C 200.094 68.353,200.464 68.385,201.774 68.743 M184.090 83.247 C 196.111 84.885,202.350 89.681,199.537 95.121 C 198.963 96.230,184.383 114.619,183.337 115.552 C 181.642 117.065,177.898 117.570,175.554 116.601 C 174.071 115.988,154.771 96.864,153.849 95.093 C 152.639 92.771,153.335 89.363,155.340 87.786 C 159.351 84.631,175.517 82.079,184.090 83.247 M283.958 126.210 C 277.189 141.690,271.563 154.586,271.456 154.868 C 271.317 155.234,272.216 156.217,274.591 158.296 C 279.192 162.324,284.936 168.128,288.950 172.805 L 292.327 176.738 295.469 173.127 C 297.197 171.141,303.563 163.796,309.616 156.804 L 320.622 144.092 317.327 137.757 C 304.002 112.139,296.598 98.065,296.445 98.065 C 296.346 98.065,290.727 110.730,283.958 126.210 " stroke="none" fill="#6bc4db" fill-rule="evenodd"></path><path id="path3" d="M177.016 43.787 C 178.125 43.850,179.940 43.850,181.048 43.787 C 182.157 43.724,181.250 43.673,179.032 43.673 C 176.815 43.673,175.907 43.724,177.016 43.787 M221.452 60.968 C 222.505 62.032,223.439 62.903,223.528 62.903 C 223.617 62.903,222.828 62.032,221.774 60.968 C 220.721 59.903,219.786 59.032,219.698 59.032 C 219.609 59.032,220.398 59.903,221.452 60.968 M135.806 61.129 C 135.023 61.927,134.454 62.581,134.543 62.581 C 134.632 62.581,135.345 61.927,136.129 61.129 C 136.913 60.331,137.481 59.677,137.392 59.677 C 137.304 59.677,136.590 60.331,135.806 61.129 M206.204 74.516 C 206.204 75.137,206.270 75.391,206.351 75.081 C 206.433 74.770,206.433 74.262,206.351 73.952 C 206.270 73.641,206.204 73.895,206.204 74.516 M176.704 83.141 C 177.642 83.207,179.093 83.206,179.930 83.140 C 180.767 83.074,180.000 83.020,178.226 83.021 C 176.452 83.022,175.767 83.076,176.704 83.141 M176.210 92.174 C 177.230 92.238,178.899 92.238,179.919 92.174 C 180.940 92.110,180.105 92.057,178.065 92.057 C 176.024 92.057,175.190 92.110,176.210 92.174 M172.016 92.480 C 172.327 92.562,172.835 92.562,173.145 92.480 C 173.456 92.399,173.202 92.333,172.581 92.333 C 171.960 92.333,171.706 92.399,172.016 92.480 M165.161 93.793 C 165.161 94.262,178.317 107.178,178.610 106.997 C 178.772 106.897,179.601 105.898,180.451 104.778 C 182.013 102.719,181.353 103.301,179.453 105.657 L 178.421 106.935 171.962 100.497 C 167.623 96.171,165.633 93.976,165.897 93.808 C 166.169 93.635,166.117 93.557,165.726 93.553 C 165.415 93.551,165.161 93.659,165.161 93.793 M188.468 93.850 C 188.512 94.016,187.902 94.986,187.112 96.006 C 186.322 97.026,185.829 97.766,186.017 97.650 C 187.062 97.004,189.331 93.548,188.710 93.548 C 188.532 93.548,188.423 93.684,188.468 93.850 M164.194 105.968 C 169.425 111.202,173.778 115.484,173.867 115.484 C 173.956 115.484,169.748 111.202,164.516 105.968 C 159.285 100.734,154.932 96.452,154.843 96.452 C 154.754 96.452,158.962 100.734,164.194 105.968 M119.107 100.323 C 119.107 100.944,119.173 101.198,119.255 100.887 C 119.336 100.577,119.336 100.069,119.255 99.758 C 119.173 99.448,119.107 99.702,119.107 100.323 M238.152 101.613 C 238.152 102.411,238.215 102.738,238.292 102.339 C 238.369 101.940,238.369 101.286,238.292 100.887 C 238.215 100.488,238.152 100.815,238.152 101.613 M118.802 106.935 C 118.804 107.823,118.867 108.147,118.941 107.657 C 119.015 107.167,119.013 106.441,118.937 106.044 C 118.860 105.647,118.800 106.048,118.802 106.935 M238.468 107.903 C 238.472 108.613,238.538 108.865,238.615 108.464 C 238.692 108.063,238.689 107.482,238.609 107.174 C 238.528 106.865,238.465 107.194,238.468 107.903 M118.462 112.581 C 118.462 113.202,118.528 113.456,118.609 113.145 C 118.691 112.835,118.691 112.327,118.609 112.016 C 118.528 111.706,118.462 111.960,118.462 112.581 M167.177 119.577 C 167.488 119.658,167.996 119.658,168.306 119.577 C 168.617 119.496,168.363 119.430,167.742 119.430 C 167.121 119.430,166.867 119.496,167.177 119.577 M156.533 129.516 C 156.537 130.226,156.603 130.478,156.680 130.077 C 156.757 129.676,156.754 129.095,156.673 128.787 C 156.593 128.478,156.529 128.806,156.533 129.516 M216.849 129.355 C 216.849 129.976,216.915 130.230,216.997 129.919 C 217.078 129.609,217.078 129.101,216.997 128.790 C 216.915 128.480,216.849 128.734,216.849 129.355 M216.849 132.581 C 216.849 133.202,216.915 133.456,216.997 133.145 C 217.078 132.835,217.078 132.327,216.997 132.016 C 216.915 131.706,216.849 131.960,216.849 132.581 M180.887 134.421 C 181.286 134.498,181.940 134.498,182.339 134.421 C 182.738 134.344,182.411 134.281,181.613 134.281 C 180.815 134.281,180.488 134.344,180.887 134.421 M156.275 152.984 L 155.000 154.355 156.371 153.080 C 157.646 151.894,157.890 151.613,157.646 151.613 C 157.593 151.613,156.976 152.230,156.275 152.984 M165.302 159.113 L 164.355 160.161 165.403 159.214 C 165.980 158.693,166.452 158.221,166.452 158.165 C 166.452 157.916,166.185 158.136,165.302 159.113 M278.226 161.935 C 278.919 162.645,279.558 163.226,279.647 163.226 C 279.736 163.226,279.241 162.645,278.548 161.935 C 277.855 161.226,277.216 160.645,277.127 160.645 C 277.038 160.645,277.533 161.226,278.226 161.935 M162.241 162.177 L 161.129 163.387 162.339 162.275 C 163.004 161.664,163.548 161.120,163.548 161.066 C 163.548 160.819,163.275 161.051,162.241 162.177 M93.378 164.597 L 91.129 166.935 93.468 164.686 C 95.640 162.597,95.954 162.258,95.717 162.258 C 95.668 162.258,94.616 163.310,93.378 164.597 M284.355 168.065 C 285.048 168.774,285.687 169.355,285.776 169.355 C 285.865 169.355,285.370 168.774,284.677 168.065 C 283.984 167.355,283.345 166.774,283.256 166.774 C 283.167 166.774,283.662 167.355,284.355 168.065 M274.188 174.274 C 277.328 177.495,277.742 177.888,277.742 177.656 C 277.742 177.608,276.181 176.048,274.274 174.188 L 270.806 170.806 274.188 174.274 M81.109 176.532 L 80.161 177.581 81.210 176.633 C 82.187 175.750,82.406 175.484,82.157 175.484 C 82.102 175.484,81.630 175.956,81.109 176.532 M147.238 241.694 L 146.290 242.742 147.339 241.794 C 148.316 240.911,148.535 240.645,148.286 240.645 C 148.231 240.645,147.759 241.117,147.238 241.694 M140.151 249.113 L 138.226 251.129 140.242 249.204 C 141.351 248.145,142.258 247.237,142.258 247.188 C 142.258 246.949,141.940 247.240,140.151 249.113 M146.607 257.823 L 143.065 261.452 146.764 257.903 C 148.798 255.952,150.528 254.319,150.608 254.274 C 150.687 254.230,150.617 254.194,150.451 254.194 C 150.286 254.194,148.556 255.827,146.607 257.823 M132.722 256.210 L 131.774 257.258 132.823 256.311 C 133.800 255.427,134.019 255.161,133.770 255.161 C 133.715 255.161,133.243 255.633,132.722 256.210 M310.097 257.097 C 310.097 258.073,310.157 258.472,310.231 257.984 C 310.305 257.496,310.305 256.698,310.231 256.210 C 310.157 255.722,310.097 256.121,310.097 257.097 M47.528 259.355 C 47.528 260.685,47.585 261.230,47.654 260.565 C 47.724 259.899,47.724 258.810,47.654 258.145 C 47.585 257.480,47.528 258.024,47.528 259.355 M47.534 265.000 C 47.533 266.597,47.587 267.291,47.655 266.542 C 47.723 265.793,47.724 264.487,47.657 263.639 C 47.590 262.791,47.535 263.403,47.534 265.000 M138.851 265.242 L 137.903 266.290 138.952 265.343 C 139.929 264.460,140.148 264.194,139.899 264.194 C 139.844 264.194,139.372 264.665,138.851 265.242 M310.097 266.452 C 310.097 267.427,310.157 267.827,310.231 267.339 C 310.305 266.851,310.305 266.052,310.231 265.565 C 310.157 265.077,310.097 265.476,310.097 266.452 M47.817 271.935 C 47.817 272.556,47.883 272.810,47.964 272.500 C 48.045 272.190,48.045 271.681,47.964 271.371 C 47.883 271.060,47.817 271.315,47.817 271.935 M264.762 279.260 C 265.163 279.338,265.744 279.335,266.052 279.254 C 266.361 279.173,266.032 279.110,265.323 279.114 C 264.613 279.117,264.361 279.183,264.762 279.260 M271.532 279.588 C 272.109 279.660,273.052 279.660,273.629 279.588 C 274.206 279.517,273.734 279.458,272.581 279.458 C 271.427 279.458,270.956 279.517,271.532 279.588 M262.016 289.900 C 262.327 289.981,262.835 289.981,263.145 289.900 C 263.456 289.819,263.202 289.752,262.581 289.752 C 261.960 289.752,261.706 289.819,262.016 289.900 M278.386 290.565 C 278.386 290.698,280.164 290.769,282.338 290.722 C 289.539 290.569,290.236 290.448,284.274 290.385 C 281.036 290.351,278.387 290.431,278.386 290.565 M89.070 353.089 C 89.049 353.457,89.431 354.110,89.919 354.541 L 90.806 355.323 90.113 354.516 C 89.731 354.073,89.349 353.419,89.263 353.065 C 89.112 352.439,89.106 352.440,89.070 353.089 M188.468 389.900 C 188.778 389.981,189.286 389.981,189.597 389.900 C 189.907 389.819,189.653 389.752,189.032 389.752 C 188.411 389.752,188.157 389.819,188.468 389.900 M176.694 390.240 C 177.980 390.301,180.085 390.301,181.371 390.240 C 182.657 390.178,181.605 390.128,179.032 390.128 C 176.460 390.128,175.407 390.178,176.694 390.240 " stroke="none" fill="#5f716d" fill-rule="evenodd"></path><path id="path4" d="M147.817 74.516 C 147.817 75.137,147.883 75.391,147.964 75.081 C 148.045 74.770,148.045 74.262,147.964 73.952 C 147.883 73.641,147.817 73.895,147.817 74.516 M160.075 74.516 C 160.075 75.137,160.141 75.391,160.222 75.081 C 160.304 74.770,160.304 74.262,160.222 73.952 C 160.141 73.641,160.075 73.895,160.075 74.516 M119.107 102.258 C 119.107 102.879,119.173 103.133,119.255 102.823 C 119.336 102.512,119.336 102.004,119.255 101.694 C 119.173 101.383,119.107 101.637,119.107 102.258 M198.306 111.841 C 198.706 111.917,199.359 111.917,199.758 111.841 C 200.157 111.764,199.831 111.701,199.032 111.701 C 198.234 111.701,197.907 111.764,198.306 111.841 M170.968 132.036 C 170.968 132.092,171.440 132.564,172.016 133.085 L 173.065 134.032 172.117 132.984 C 171.234 132.007,170.968 131.787,170.968 132.036 M258.387 159.839 C 259.530 160.992,260.538 161.935,260.627 161.935 C 260.715 161.935,259.853 160.992,258.710 159.839 C 257.567 158.685,256.559 157.742,256.470 157.742 C 256.382 157.742,257.244 158.685,258.387 159.839 M280.645 163.972 C 280.645 164.027,281.117 164.499,281.694 165.020 L 282.742 165.968 281.794 164.919 C 280.911 163.942,280.645 163.723,280.645 163.972 M84.832 172.823 L 82.097 175.645 84.919 172.910 C 87.541 170.370,87.889 170.000,87.654 170.000 C 87.606 170.000,86.336 171.270,84.832 172.823 M144.665 244.274 L 143.065 245.968 144.758 244.367 C 145.690 243.487,146.452 242.724,146.452 242.673 C 146.452 242.433,146.153 242.701,144.665 244.274 M135.473 253.468 L 133.710 255.323 135.565 253.559 C 137.288 251.921,137.567 251.613,137.328 251.613 C 137.277 251.613,136.443 252.448,135.473 253.468 M310.118 261.774 C 310.119 263.548,310.173 264.233,310.238 263.296 C 310.304 262.358,310.303 260.907,310.237 260.070 C 310.170 259.233,310.117 260.000,310.118 261.774 M275.396 279.588 C 275.969 279.659,276.985 279.660,277.654 279.590 C 278.323 279.520,277.855 279.462,276.613 279.461 C 275.371 279.459,274.823 279.516,275.396 279.588 M288.790 279.577 C 289.101 279.658,289.609 279.658,289.919 279.577 C 290.230 279.496,289.976 279.430,289.355 279.430 C 288.734 279.430,288.480 279.496,288.790 279.577 " stroke="none" fill="#5dabbb" fill-rule="evenodd"></path></g></svg>