<svg id="svg" version="1.1" xmlns="http://www.w3.org/2000/svg" xmlns:xlink="http://www.w3.org/1999/xlink" width="400" height="488.7096774193548" viewBox="0, 0, 400,488.7096774193548"><g id="svgg"><path id="path0" d="M137.635 14.536 C 95.667 18.258,69.643 65.190,88.097 103.871 C 96.642 121.782,108.763 131.439,131.040 138.085 C 145.386 142.364,150.455 144.470,154.864 147.981 C 161.419 153.200,164.634 160.321,164.659 169.677 C 164.682 178.212,163.211 182.858,155.006 200.161 C 148.090 214.746,146.016 220.447,142.450 234.677 C 137.062 256.180,138.913 286.462,147.114 310.968 C 159.706 348.592,191.762 382.659,228.145 397.082 C 229.165 397.486,230.000 397.875,230.000 397.947 C 230.000 398.840,220.118 419.664,215.885 427.691 L 212.764 433.609 211.463 433.391 C 201.921 431.795,197.097 432.610,197.097 435.817 C 197.097 437.391,197.989 437.792,202.165 438.097 C 205.425 438.335,209.115 439.008,209.551 439.444 C 209.623 439.515,207.757 441.327,205.405 443.471 C 197.785 450.415,197.621 450.715,200.619 452.245 C 203.442 453.685,204.445 453.339,208.615 449.489 C 210.648 447.612,212.382 446.146,212.468 446.231 C 212.554 446.317,212.237 448.005,211.764 449.982 C 210.581 454.930,211.404 456.452,215.263 456.452 C 217.543 456.452,218.034 455.446,219.040 448.710 C 219.239 447.379,219.467 445.963,219.546 445.562 L 219.691 444.835 221.221 445.610 C 223.338 446.683,226.399 449.034,228.077 450.876 C 230.576 453.619,231.930 454.157,233.094 452.871 C 235.133 450.618,232.277 445.939,225.999 441.248 C 224.563 440.174,223.012 439.015,222.554 438.673 L 221.720 438.050 226.475 428.622 C 235.912 409.911,238.291 404.066,237.410 401.750 C 236.936 400.502,236.955 400.502,241.141 401.771 C 245.640 403.135,250.302 404.329,250.452 404.155 C 250.511 404.088,250.359 402.726,250.115 401.129 C 249.871 399.532,249.491 397.040,249.271 395.590 C 248.793 392.438,249.033 392.716,246.094 391.915 C 232.893 388.319,219.421 382.139,209.111 374.951 C 207.447 373.790,206.026 372.673,205.954 372.469 C 205.604 371.477,204.447 354.964,203.869 342.742 C 203.385 332.498,203.048 333.881,206.532 331.829 C 235.146 314.982,264.324 284.937,276.761 259.516 C 293.077 226.167,292.575 193.519,275.481 176.258 C 264.979 165.653,257.916 165.671,252.528 176.318 C 248.835 183.616,245.808 186.759,239.516 189.829 C 225.615 196.612,209.253 196.508,181.935 189.462 C 178.121 188.478,174.660 187.597,174.245 187.503 C 173.386 187.310,173.345 187.720,174.778 182.187 C 179.505 163.941,173.755 146.488,159.949 137.171 C 154.653 133.598,149.318 131.400,136.935 127.693 C 120.391 122.739,115.628 120.209,108.021 112.335 C 82.125 85.531,92.810 40.835,128.046 28.570 C 139.199 24.688,146.053 24.929,169.490 30.027 C 203.104 37.338,222.399 43.795,246.594 55.832 C 253.754 59.394,253.263 59.183,253.045 58.614 C 252.871 58.160,253.265 54.752,254.023 50.161 C 254.287 48.565,254.505 47.097,254.509 46.899 C 254.522 46.222,238.802 39.045,227.603 34.616 C 211.638 28.302,197.751 24.296,173.071 18.882 C 153.508 14.591,146.587 13.742,137.635 14.536 M136.935 52.545 C 133.113 54.309,132.329 59.070,135.432 61.681 C 139.213 64.862,144.608 62.436,144.608 57.554 C 144.608 53.451,140.617 50.846,136.935 52.545 M151.452 69.484 C 145.025 72.678,140.509 78.731,138.554 86.774 C 136.237 96.305,137.535 100.639,142.709 100.649 C 149.450 100.662,170.559 99.251,171.832 98.702 C 173.435 98.011,174.297 96.584,174.299 94.619 C 174.301 93.035,160.165 71.028,158.122 69.434 C 156.385 68.078,154.247 68.094,151.452 69.484 M161.311 83.902 C 164.873 89.241,167.741 93.650,167.684 93.700 C 167.627 93.749,162.863 94.028,157.097 94.320 C 151.331 94.611,145.828 94.933,144.869 95.035 L 143.126 95.220 143.325 92.529 C 143.934 84.307,149.617 75.198,154.755 74.209 C 154.798 74.200,157.748 78.562,161.311 83.902 M117.675 86.111 C 112.379 87.793,112.326 95.040,117.597 96.779 C 122.474 98.389,126.681 92.662,123.781 88.360 C 122.510 86.473,119.743 85.454,117.675 86.111 M268.922 186.117 C 280.067 199.393,279.790 224.526,268.212 250.580 C 253.262 284.220,214.395 319.607,177.774 332.921 L 172.161 334.962 171.106 333.705 C 163.906 325.129,155.988 304.767,153.080 287.346 C 150.946 274.563,150.212 254.668,151.589 246.935 C 154.564 230.229,163.129 207.361,169.628 198.772 L 170.191 198.028 176.305 199.665 C 200.387 206.113,218.985 207.657,232.402 204.321 C 246.990 200.694,256.743 193.546,261.974 182.649 L 262.948 180.620 264.942 182.186 C 266.038 183.047,267.829 184.816,268.922 186.117 M195.003 353.182 C 195.286 358.393,195.457 362.715,195.385 362.787 C 194.902 363.270,178.710 345.824,178.710 344.819 C 178.710 344.682,179.399 344.318,180.242 344.011 C 183.369 342.870,192.447 339.271,193.226 338.863 L 194.032 338.440 194.261 341.075 C 194.387 342.524,194.721 347.972,195.003 353.182 " stroke="none" fill="#1c1c1c" fill-rule="evenodd"></path><path id="path1" d="M137.419 26.482 C 102.164 31.050,82.525 72.217,100.980 102.865 C 109.029 116.231,116.618 121.357,137.789 127.725 C 153.548 132.466,160.223 135.874,166.237 142.249 C 176.363 152.983,179.568 171.350,173.906 186.200 C 173.584 187.046,173.622 187.091,174.931 187.439 C 175.679 187.637,177.815 188.210,179.677 188.713 C 218.044 199.056,242.683 195.396,251.358 178.065 C 252.113 176.556,253.057 174.786,253.455 174.131 C 254.168 172.958,254.177 172.810,254.015 164.776 C 253.369 132.593,252.839 95.203,252.795 78.644 L 252.742 59.061 245.161 55.362 C 221.357 43.746,203.268 37.675,172.097 30.838 C 151.256 26.268,145.072 25.491,137.419 26.482 M142.515 52.856 C 146.953 56.017,144.646 63.226,139.196 63.226 C 133.258 63.226,131.173 56.011,136.137 52.641 C 137.652 51.612,140.923 51.723,142.515 52.856 M157.320 68.693 C 159.567 69.713,174.516 92.317,174.516 94.693 C 174.516 99.149,174.042 99.293,156.289 100.245 L 141.347 101.047 139.948 100.282 C 133.706 96.867,138.670 78.245,147.569 71.688 C 152.097 68.352,154.765 67.533,157.320 68.693 M121.921 86.444 C 124.887 87.957,125.904 92.166,123.943 94.814 C 120.492 99.475,113.534 97.176,113.554 91.381 C 113.568 87.129,118.064 84.477,121.921 86.444 M262.123 182.843 C 250.691 206.300,221.484 212.052,176.021 199.802 C 169.458 198.034,170.364 197.677,167.177 203.285 C 158.254 218.985,151.695 240.237,151.115 255.328 C 150.043 283.221,157.073 312.237,169.417 330.858 L 172.017 334.781 174.960 333.712 C 182.223 331.072,183.503 330.569,187.739 328.700 C 209.769 318.976,236.569 296.877,253.842 274.194 C 279.644 240.308,284.681 196.552,264.449 182.037 L 263.017 181.009 262.123 182.843 M190.968 340.024 C 189.460 340.713,186.157 342.039,183.629 342.971 C 181.101 343.904,179.032 344.776,179.032 344.909 C 179.032 345.494,186.052 353.466,190.323 357.731 C 195.774 363.176,195.390 363.351,194.869 355.670 C 194.676 352.818,194.422 347.835,194.305 344.597 C 194.188 341.359,194.006 338.724,193.901 338.741 C 193.796 338.759,192.476 339.336,190.968 340.024 " stroke="none" fill="#6bc4db" fill-rule="evenodd"></path><path id="path2" d="M152.389 75.748 C 147.479 78.924,144.253 85.060,143.412 92.823 C 143.216 94.630,143.254 94.838,143.774 94.836 C 145.219 94.830,167.200 93.553,167.282 93.470 C 167.452 93.301,154.857 74.516,154.573 74.516 C 154.419 74.516,153.436 75.071,152.389 75.748 M243.361 303.193 C 231.429 314.874,218.702 324.854,206.805 331.858 L 203.772 333.644 203.986 340.279 C 204.320 350.650,205.790 372.383,206.180 372.726 C 212.708 378.474,230.860 387.334,243.709 391.044 C 248.873 392.535,249.214 392.499,248.890 390.484 C 246.512 375.705,246.570 331.913,249.010 300.968 C 249.157 299.105,249.259 297.559,249.236 297.532 C 249.212 297.506,246.569 300.053,243.361 303.193 " stroke="none" fill="#fbefce" fill-rule="evenodd"></path><path id="path3" d="M141.863 26.043 C 142.622 26.111,143.783 26.110,144.444 26.041 C 145.105 25.972,144.484 25.916,143.065 25.917 C 141.645 25.918,141.105 25.975,141.863 26.043 M253.301 54.516 C 253.301 55.137,253.367 55.391,253.448 55.081 C 253.529 54.770,253.529 54.262,253.448 53.952 C 253.367 53.641,253.301 53.895,253.301 54.516 M252.978 57.742 C 252.978 58.363,253.044 58.617,253.126 58.306 C 253.207 57.996,253.207 57.488,253.126 57.177 C 253.044 56.867,252.978 57.121,252.978 57.742 M93.670 76.774 C 93.670 78.815,93.723 79.649,93.787 78.629 C 93.851 77.609,93.851 75.940,93.787 74.919 C 93.723 73.899,93.670 74.734,93.670 76.774 M149.355 77.903 C 148.571 78.702,148.003 79.355,148.091 79.355 C 148.180 79.355,148.894 78.702,149.677 77.903 C 150.461 77.105,151.029 76.452,150.941 76.452 C 150.852 76.452,150.138 77.105,149.355 77.903 M145.952 82.611 C 145.668 83.159,145.494 83.666,145.564 83.736 C 145.634 83.806,145.932 83.357,146.227 82.738 C 146.891 81.347,146.661 81.240,145.952 82.611 M166.002 91.371 C 166.130 91.593,166.505 92.165,166.836 92.642 L 167.436 93.510 166.057 93.634 L 164.677 93.758 166.210 93.815 C 168.002 93.881,167.990 93.909,166.893 92.251 C 166.115 91.077,165.453 90.422,166.002 91.371 M143.301 92.258 C 143.301 92.879,143.367 93.133,143.448 92.823 C 143.529 92.512,143.529 92.004,143.448 91.694 C 143.367 91.383,143.301 91.637,143.301 92.258 M159.590 94.104 C 160.162 94.175,161.178 94.176,161.848 94.106 C 162.517 94.037,162.048 93.978,160.806 93.977 C 159.565 93.975,159.017 94.033,159.590 94.104 M153.790 94.427 C 154.367 94.498,155.310 94.498,155.887 94.427 C 156.464 94.355,155.992 94.297,154.839 94.297 C 153.685 94.297,153.214 94.355,153.790 94.427 M147.654 94.749 C 148.227 94.820,149.243 94.821,149.912 94.752 C 150.581 94.682,150.113 94.623,148.871 94.622 C 147.629 94.621,147.081 94.678,147.654 94.749 M166.371 99.582 C 166.770 99.659,167.423 99.659,167.823 99.582 C 168.222 99.506,167.895 99.443,167.097 99.443 C 166.298 99.443,165.972 99.506,166.371 99.582 M160.242 99.905 C 160.641 99.982,161.294 99.982,161.694 99.905 C 162.093 99.828,161.766 99.765,160.968 99.765 C 160.169 99.765,159.843 99.828,160.242 99.905 M154.439 100.228 C 154.841 100.305,155.421 100.302,155.730 100.222 C 156.038 100.141,155.710 100.078,155.000 100.081 C 154.290 100.085,154.038 100.151,154.439 100.228 M148.310 100.551 C 148.711 100.628,149.292 100.625,149.601 100.544 C 149.909 100.463,149.581 100.400,148.871 100.404 C 148.161 100.408,147.909 100.474,148.310 100.551 M142.177 100.873 C 142.577 100.950,143.230 100.950,143.629 100.873 C 144.028 100.796,143.702 100.733,142.903 100.733 C 142.105 100.733,141.778 100.796,142.177 100.873 M165.323 141.613 C 166.016 142.323,166.655 142.903,166.744 142.903 C 166.833 142.903,166.338 142.323,165.645 141.613 C 164.952 140.903,164.313 140.323,164.224 140.323 C 164.135 140.323,164.630 140.903,165.323 141.613 M176.539 169.677 C 176.539 170.476,176.602 170.802,176.679 170.403 C 176.756 170.004,176.756 169.351,176.679 168.952 C 176.602 168.552,176.539 168.879,176.539 169.677 M266.935 184.194 C 267.809 185.081,268.597 185.806,268.685 185.806 C 268.774 185.806,268.132 185.081,267.258 184.194 C 266.384 183.306,265.597 182.581,265.508 182.581 C 265.419 182.581,266.062 183.306,266.935 184.194 M246.598 184.919 L 245.323 186.290 246.694 185.015 C 247.969 183.829,248.213 183.548,247.969 183.548 C 247.916 183.548,247.299 184.165,246.598 184.919 M254.657 192.984 L 253.710 194.032 254.758 193.085 C 255.335 192.564,255.806 192.092,255.806 192.036 C 255.806 191.787,255.540 192.007,254.657 192.984 M212.181 194.744 C 212.582 194.821,213.163 194.819,213.472 194.738 C 213.780 194.657,213.452 194.594,212.742 194.597 C 212.032 194.601,211.780 194.667,212.181 194.744 M210.726 206.029 C 211.036 206.110,211.544 206.110,211.855 206.029 C 212.165 205.948,211.911 205.881,211.290 205.881 C 210.669 205.881,210.415 205.948,210.726 206.029 M151.060 251.129 C 151.062 252.016,151.125 252.341,151.199 251.850 C 151.273 251.360,151.271 250.634,151.195 250.238 C 151.118 249.841,151.058 250.242,151.060 251.129 M151.049 269.194 C 151.053 269.903,151.119 270.156,151.196 269.754 C 151.273 269.353,151.270 268.772,151.189 268.464 C 151.109 268.156,151.046 268.484,151.049 269.194 M240.645 289.516 C 239.862 290.315,239.293 290.968,239.382 290.968 C 239.471 290.968,240.184 290.315,240.968 289.516 C 241.751 288.718,242.320 288.065,242.231 288.065 C 242.142 288.065,241.429 288.718,240.645 289.516 M232.404 297.823 L 231.129 299.194 232.500 297.918 C 233.775 296.733,234.019 296.452,233.775 296.452 C 233.722 296.452,233.106 297.069,232.404 297.823 M244.673 301.694 L 240.161 306.290 244.758 301.779 C 249.028 297.587,249.501 297.097,249.270 297.097 C 249.223 297.097,247.155 299.165,244.673 301.694 M203.652 336.774 C 203.652 337.927,203.710 338.399,203.782 337.823 C 203.853 337.246,203.853 336.302,203.782 335.726 C 203.710 335.149,203.652 335.621,203.652 336.774 M194.290 342.903 C 194.290 343.879,194.351 344.278,194.425 343.790 C 194.499 343.302,194.499 342.504,194.425 342.016 C 194.351 341.528,194.290 341.927,194.290 342.903 M203.963 344.677 C 203.966 345.565,204.028 345.889,204.102 345.399 C 204.177 344.908,204.175 344.183,204.098 343.786 C 204.021 343.389,203.961 343.790,203.963 344.677 M194.597 349.516 C 194.601 350.226,194.667 350.478,194.744 350.077 C 194.821 349.676,194.819 349.095,194.738 348.787 C 194.657 348.478,194.594 348.806,194.597 349.516 M204.281 350.968 C 204.281 351.766,204.344 352.093,204.421 351.694 C 204.498 351.294,204.498 350.641,204.421 350.242 C 204.344 349.843,204.281 350.169,204.281 350.968 M194.914 355.161 C 194.914 355.782,194.980 356.036,195.061 355.726 C 195.142 355.415,195.142 354.907,195.061 354.597 C 194.980 354.286,194.914 354.540,194.914 355.161 M204.591 356.452 C 204.591 357.073,204.657 357.327,204.738 357.016 C 204.820 356.706,204.820 356.198,204.738 355.887 C 204.657 355.577,204.591 355.831,204.591 356.452 M189.677 357.581 C 190.641 358.556,191.502 359.355,191.591 359.355 C 191.680 359.355,190.964 358.556,190.000 357.581 C 189.036 356.605,188.175 355.806,188.087 355.806 C 187.998 355.806,188.714 356.605,189.677 357.581 M204.914 361.290 C 204.914 361.911,204.980 362.165,205.061 361.855 C 205.142 361.544,205.142 361.036,205.061 360.726 C 204.980 360.415,204.914 360.669,204.914 361.290 M249.107 394.516 C 249.107 395.137,249.173 395.391,249.255 395.081 C 249.336 394.770,249.336 394.262,249.255 393.952 C 249.173 393.641,249.107 393.895,249.107 394.516 " stroke="none" fill="#647264" fill-rule="evenodd"></path><path id="path4" d="M145.161 73.710 C 144.378 74.508,143.809 75.161,143.898 75.161 C 143.987 75.161,144.700 74.508,145.484 73.710 C 146.267 72.911,146.836 72.258,146.747 72.258 C 146.659 72.258,145.945 72.911,145.161 73.710 M137.193 95.161 C 137.193 96.137,137.254 96.536,137.328 96.048 C 137.402 95.560,137.402 94.762,137.328 94.274 C 137.254 93.786,137.193 94.185,137.193 95.161 M150.403 100.545 C 150.714 100.626,151.222 100.626,151.532 100.545 C 151.843 100.464,151.589 100.397,150.968 100.397 C 150.347 100.397,150.093 100.464,150.403 100.545 M176.526 171.935 C 176.526 172.556,176.593 172.810,176.674 172.500 C 176.755 172.190,176.755 171.681,176.674 171.371 C 176.593 171.060,176.526 171.315,176.526 171.935 M214.764 194.750 C 215.344 194.822,216.215 194.820,216.699 194.747 C 217.184 194.673,216.710 194.614,215.645 194.616 C 214.581 194.618,214.184 194.678,214.764 194.750 M219.278 194.744 C 219.679 194.821,220.260 194.819,220.568 194.738 C 220.877 194.657,220.548 194.594,219.839 194.597 C 219.129 194.601,218.877 194.667,219.278 194.744 M216.059 206.367 C 216.997 206.433,218.448 206.432,219.285 206.366 C 220.122 206.299,219.355 206.246,217.581 206.247 C 215.806 206.248,215.122 206.302,216.059 206.367 M151.043 253.548 C 151.043 254.169,151.109 254.423,151.190 254.113 C 151.271 253.802,151.271 253.294,151.190 252.984 C 151.109 252.673,151.043 252.927,151.043 253.548 M151.060 266.613 C 151.062 267.500,151.125 267.825,151.199 267.334 C 151.273 266.844,151.271 266.118,151.195 265.721 C 151.118 265.325,151.058 265.726,151.060 266.613 M243.044 286.855 L 242.097 287.903 243.145 286.956 C 243.722 286.435,244.194 285.963,244.194 285.907 C 244.194 285.658,243.927 285.878,243.044 286.855 M236.444 293.790 L 233.710 296.613 236.532 293.878 C 239.154 291.338,239.502 290.968,239.267 290.968 C 239.219 290.968,237.949 292.238,236.444 293.790 M194.268 345.484 C 194.268 346.105,194.335 346.359,194.416 346.048 C 194.497 345.738,194.497 345.230,194.416 344.919 C 194.335 344.609,194.268 344.863,194.268 345.484 M194.591 351.613 C 194.591 352.234,194.657 352.488,194.738 352.177 C 194.820 351.867,194.820 351.359,194.738 351.048 C 194.657 350.738,194.591 350.992,194.591 351.613 M186.452 354.032 C 187.053 354.653,187.618 355.161,187.707 355.161 C 187.796 355.161,187.376 354.653,186.774 354.032 C 186.172 353.411,185.607 352.903,185.519 352.903 C 185.430 352.903,185.850 353.411,186.452 354.032 M193.226 360.806 C 193.828 361.427,194.393 361.935,194.481 361.935 C 194.570 361.935,194.150 361.427,193.548 360.806 C 192.947 360.185,192.382 359.677,192.293 359.677 C 192.204 359.677,192.624 360.185,193.226 360.806 " stroke="none" fill="#5dabbb" fill-rule="evenodd"></path></g></svg>